<svg xmlns="http://www.w3.org/2000/svg"  viewBox="0 0 64 64" width="64px" height="64px"><linearGradient id="Ed9UiphCQTjpX0CQctNuea" x1="34" x2="34" y1="11.75" y2="22.75" gradientUnits="userSpaceOnUse" spreadMethod="reflect"><stop offset="0" stop-color="#6dc7ff"/><stop offset="1" stop-color="#e6abff"/></linearGradient><path fill="url(#Ed9UiphCQTjpX0CQctNuea)" d="M38,22h-8v-9c0-0.552,0.448-1,1-1h6c0.552,0,1,0.448,1,1V22z"/><linearGradient id="Ed9UiphCQTjpX0CQctNueb" x1="32" x2="32" y1="5" y2="59.047" gradientUnits="userSpaceOnUse" spreadMethod="reflect"><stop offset="0" stop-color="#1a6dff"/><stop offset="1" stop-color="#c822ff"/></linearGradient><path fill="url(#Ed9UiphCQTjpX0CQctNueb)" d="M51,6H29c-2.757,0-5,2.243-5,5v7H11c-1.654,0-3,1.346-3,3v34c0,1.654,1.346,3,3,3h28 c1.654,0,3-1.346,3-3V37.936c0.133-0.121,0.266-0.244,0.378-0.391l3.828-4.984l0.058-0.084C46.448,32.179,46.768,32,47.118,32H51 c2.757,0,5-2.243,5-5V11C56,8.243,53.757,6,51,6z M40,55c0,0.552-0.448,1-1,1H11c-0.552,0-1-0.448-1-1V21c0-0.552,0.448-1,1-1h13v7 c0,2.757,2.243,5,5,5h3.882c0.351,0,0.67,0.179,0.854,0.478l3.886,5.068c0.572,0.744,1.438,1.171,2.378,1.171V55z M54,27 c0,1.654-1.346,3-3,3h-3.882c-1.03,0-1.971,0.515-2.526,1.38l-3.8,4.947c-0.381,0.496-1.203,0.496-1.584,0l-3.8-4.947 C34.853,30.515,33.912,30,32.882,30H29c-1.654,0-3-1.346-3-3V11c0-1.654,1.346-3,3-3h22c1.654,0,3,1.346,3,3V27z"/><linearGradient id="Ed9UiphCQTjpX0CQctNuec" x1="15" x2="15" y1="5" y2="59.047" gradientUnits="userSpaceOnUse" spreadMethod="reflect"><stop offset="0" stop-color="#1a6dff"/><stop offset="1" stop-color="#c822ff"/></linearGradient><path fill="url(#Ed9UiphCQTjpX0CQctNuec)" d="M18,25v-3h-2v3c0,0.552-0.448,1-1,1h-3v2h3C16.654,28,18,26.654,18,25z"/><linearGradient id="Ed9UiphCQTjpX0CQctNued" x1="45" x2="45" y1="5" y2="59.047" gradientUnits="userSpaceOnUse" spreadMethod="reflect"><stop offset="0" stop-color="#1a6dff"/><stop offset="1" stop-color="#c822ff"/></linearGradient><path fill="url(#Ed9UiphCQTjpX0CQctNued)" d="M40 12H50V14H40z"/><linearGradient id="Ed9UiphCQTjpX0CQctNuee" x1="34" x2="34" y1="5" y2="59.047" gradientUnits="userSpaceOnUse" spreadMethod="reflect"><stop offset="0" stop-color="#1a6dff"/><stop offset="1" stop-color="#c822ff"/></linearGradient><path fill="url(#Ed9UiphCQTjpX0CQctNuee)" d="M30 24H38V26H30z"/><linearGradient id="Ed9UiphCQTjpX0CQctNuef" x1="19" x2="19" y1="5" y2="59.047" gradientUnits="userSpaceOnUse" spreadMethod="reflect"><stop offset="0" stop-color="#1a6dff"/><stop offset="1" stop-color="#c822ff"/></linearGradient><path fill="url(#Ed9UiphCQTjpX0CQctNuef)" d="M14 32L18 32 18 40 20 40 20 32 24 32 24 30 14 30z"/><linearGradient id="Ed9UiphCQTjpX0CQctNueg" x1="29" x2="29" y1="5" y2="59.047" gradientUnits="userSpaceOnUse" spreadMethod="reflect"><stop offset="0" stop-color="#1a6dff"/><stop offset="1" stop-color="#c822ff"/></linearGradient><path fill="url(#Ed9UiphCQTjpX0CQctNueg)" d="M24 38H34V40H24z"/><linearGradient id="Ed9UiphCQTjpX0CQctNueh" x1="25" x2="25" y1="5" y2="59.047" gradientUnits="userSpaceOnUse" spreadMethod="reflect"><stop offset="0" stop-color="#1a6dff"/><stop offset="1" stop-color="#c822ff"/></linearGradient><path fill="url(#Ed9UiphCQTjpX0CQctNueh)" d="M34,42H16c-1.103,0-2,0.897-2,2v6c0,1.103,0.897,2,2,2h18c1.103,0,2-0.897,2-2v-6 C36,42.897,35.103,42,34,42z M30,44v6H20v-6H30z M16,44h2v6h-2V44z M32,50v-6h2l0.002,6H32z"/><linearGradient id="Ed9UiphCQTjpX0CQctNuei" x1="28" x2="28" y1="5" y2="59.047" gradientUnits="userSpaceOnUse" spreadMethod="reflect"><stop offset="0" stop-color="#1a6dff"/><stop offset="1" stop-color="#c822ff"/></linearGradient><path fill="url(#Ed9UiphCQTjpX0CQctNuei)" d="M24 34H32V36H24z"/><linearGradient id="Ed9UiphCQTjpX0CQctNuej" x1="45" x2="45" y1="5" y2="59.047" gradientUnits="userSpaceOnUse" spreadMethod="reflect"><stop offset="0" stop-color="#1a6dff"/><stop offset="1" stop-color="#c822ff"/></linearGradient><path fill="url(#Ed9UiphCQTjpX0CQctNuej)" d="M40 16H50V18H40z"/><linearGradient id="Ed9UiphCQTjpX0CQctNuek" x1="45" x2="45" y1="5" y2="59.047" gradientUnits="userSpaceOnUse" spreadMethod="reflect"><stop offset="0" stop-color="#1a6dff"/><stop offset="1" stop-color="#c822ff"/></linearGradient><path fill="url(#Ed9UiphCQTjpX0CQctNuek)" d="M40 20H50V22H40z"/><linearGradient id="Ed9UiphCQTjpX0CQctNuel" x1="45" x2="45" y1="5" y2="59.047" gradientUnits="userSpaceOnUse" spreadMethod="reflect"><stop offset="0" stop-color="#1a6dff"/><stop offset="1" stop-color="#c822ff"/></linearGradient><path fill="url(#Ed9UiphCQTjpX0CQctNuel)" d="M40 24H50V26H40z"/></svg>