<?xml version="1.0" encoding="utf-8"?>
<!-- Generator: Adobe Illustrator 24.0.1, SVG Export Plug-In . SVG Version: 6.00 Build 0)  -->
<svg version="1.1" id="Layer_1" xmlns="http://www.w3.org/2000/svg" xmlns:xlink="http://www.w3.org/1999/xlink" x="0px" y="0px"
	 viewBox="0 0 281.8 580.3" style="enable-background:new 0 0 281.8 580.3;" xml:space="preserve">
<style type="text/css">
	.st0{fill:#FFFFFF;}
</style>
<title>Ahri-logo-icon-black-rgb</title>
<path class="st0" d="M47.3,154.2c1,0.8,2,1.6,3,2.3c6.2,4.6,13.3,8,20.9,10c0.1,0.1,0.3,0.1,0.4,0.1c7.6-5.6,15.7-10.4,24.2-14.5
	c2-1,4.1-1.9,6.2-2.8c9-3.9,18.4-7,28-9.1c3.7-0.9,7.6-1.6,11.5-2.2c7.6-1.1,15.4-1.7,23.1-1.7c11.9,0,24.7,0.4,35.8,2.9
	c-5.3-5.6-11.3-10.5-17.8-14.6h-0.1l-0.1-0.1c-15-9.6-32.4-14.7-50.2-14.7h-0.4c-7.9,0-15.9,1-23.6,2.9l-1.3,0.3
	c-1.6,0.5-3.2,1-4.8,1.4c-5.2,1.7-10.2,3.9-15,6.6c-5.6,1.5-11.4,2.3-17.2,2.3c-17.2,0-33.7-7-45.6-19.5v1.6
	C24.2,124.4,32.7,142.3,47.3,154.2z"/>
<path class="st0" d="M6.9,321c11.5-17.8,25.2-34.2,40.8-48.6c5.2-4.8,10.5-9.3,16-13.6c42.9-33.5,95.5-52.2,149.9-53.3
	c1.8-0.1,3.5-0.1,5.2-0.1c1.5,0,3,0,4.5,0.1c7.3,0.1,14.6,0.5,21.7,1.3c12.4,1.2,24.6,3.4,36.6,6.5c-13.7-15.3-30.2-27.7-48.7-36.6
	c-2-1-4-1.9-6-2.8c-8.2-3.5-16.6-6.4-25.3-8.5c-1-0.2-1.9-0.4-2.8-0.7l0,0c-11.3-2.5-22.8-3.8-34.4-3.7c-7.7,0-15.4,0.5-23.1,1.7
	c-3.9,0.5-7.7,1.3-11.5,2.1c-9.6,2.2-19,5.2-28,9.1c-2.1,0.9-4.2,1.9-6.2,2.8c-8.5,4.1-16.6,9-24.2,14.6c-3.2,2.4-6.3,4.8-9.4,7.4
	c-34.9,30-55.1,73.8-55.1,119.9c0,0.8,0,1.6,0.1,2.3L6.9,321z"/>
<path class="st0" d="M131.1,578.1c8.8,1.5,17.6,2.2,26.5,2.2c34.9,0,68.8-11.5,96.3-32.9c0,0,0-0.1,0.1-0.1
	c4.8-3.6,9.3-7.6,13.6-11.8H149.2L131.1,578.1z"/>
<polygon class="st0" points="222.1,363.9 219.7,369.3 164,499.9 279.1,499.9 224.6,369.9 "/>
<path class="st0" d="M193.9,341.6c-3.8-4.2-7-9-9.5-14c-1-2-1.8-4-2.6-6.1c-2.6-6.9-3.9-14.3-3.9-21.7c0-11.3,3-22.3,8.7-32
	c8.7-14.7,23-25.3,39.7-29.4c1.2-0.3,2.4-0.5,3.5-0.7l0,0c0.9-0.2,1.8-0.3,2.7-0.4c0.1,0,0.2-0.1,0.4-0.1c0.5-0.1,1.1-0.1,1.6-0.1
	c0.3-0.1,0.5-0.1,0.9-0.1c1.9-0.2,3.7-0.2,5.6-0.2c1,0,2,0,3.1,0.1c-1.5-0.1-3-0.2-4.5-0.2h-0.1c-4.3-0.2-8.7-0.4-13.1-0.4h-0.1
	c-55.7-0.1-109.8,18.4-153.8,52.4c-4.6,3.4-9,7.1-13.3,10.9c-0.3,0.3-0.7,0.7-1,1c-10.2,9.1-19.7,19-28.2,29.7h-0.1
	C-1.8,374.1-8.8,431.1,11.3,481.2v0.1c1.1,2.9,2.4,5.7,3.7,8.6c16.3,34.6,44.7,62.2,79.8,77.5l29-65.9L179.7,374L193.9,341.6z"/>
<path class="st0" d="M194.2,105.8c0.2-2,0.3-3.9,0.3-5.9c0-22.8-12.3-43.9-32.2-55c0,0,0-0.1-0.1-0.1c-0.5-0.2-1-0.5-1.5-0.8
	c-15.1-8.7-20.3-28-11.6-43.1c0.2-0.3,0.4-0.7,0.6-1h-0.1c-23.7,25.5-22.2,65.3,3.2,89C164.2,99.5,178.8,105.4,194.2,105.8z"/>
</svg>
