<svg id="Layer_1" data-name="Layer 1" xmlns="http://www.w3.org/2000/svg" viewBox="0 0 590 580.31"><defs><style>.cls-1{fill:#fff;}</style></defs><title>Ahri-logo-white-rgb</title><path class="cls-1" d="M52.23,163.44c1,.79,2,1.57,3,2.29a60.48,60.48,0,0,0,20.86,10c.12.06.3.06.42.12a156,156,0,0,1,24.17-14.53c2-1,4.1-1.93,6.21-2.83a153.53,153.53,0,0,1,28-9.1c3.74-.85,7.59-1.57,11.45-2.17a161.31,161.31,0,0,1,23.09-1.69c11.87,0,24.71.42,35.81,2.89a96.82,96.82,0,0,0-17.79-14.58h-.06l-.06-.06a93,93,0,0,0-32.31-13,91.55,91.55,0,0,0-17.9-1.75h-.36a94.84,94.84,0,0,0-23.57,3l-1.33.36-4.76,1.45a93.61,93.61,0,0,0-15.07,6.51,64.43,64.43,0,0,1-17.18,2.35,63,63,0,0,1-45.63-19.47v1.57A62.84,62.84,0,0,0,52.23,163.44Z" transform="translate(-4.97 -9.19)"/><path class="cls-1" d="M11.9,330.2a252.36,252.36,0,0,1,40.81-48.58c5.18-4.76,10.49-9.28,16-13.62a251.4,251.4,0,0,1,149.92-53.29c1.75-.06,3.49-.06,5.24-.06,1.51,0,3,0,4.52.06,7.3.12,14.59.54,21.7,1.33a242.27,242.27,0,0,1,36.65,6.51A156.48,156.48,0,0,0,238.07,186c-2-1-4-1.93-6-2.84a156.21,156.21,0,0,0-25.26-8.5c-1-.18-1.87-.42-2.83-.66h-.06a157.78,157.78,0,0,0-34.42-3.74,154.39,154.39,0,0,0-23.09,1.69c-3.86.54-7.71,1.27-11.45,2.11a159.11,159.11,0,0,0-28,9.1c-2.11.91-4.16,1.87-6.21,2.84a161.11,161.11,0,0,0-24.17,14.58c-3.2,2.36-6.33,4.83-9.35,7.42A157.4,157.4,0,0,0,11.84,327.79c0,.79,0,1.57.06,2.29Z" transform="translate(-4.97 -9.19)"/><path class="cls-1" d="M136.07,587.26a159.9,159.9,0,0,0,26.53,2.23,156.92,156.92,0,0,0,96.32-32.91.06.06,0,0,1,.06-.06,147.47,147.47,0,0,0,13.57-11.75H154.16Z" transform="translate(-4.97 -9.19)"/><polygon class="cls-1" points="222.07 363.9 219.72 369.33 163.96 499.89 279.09 499.89 224.6 369.93 222.07 363.9"/><path class="cls-1" d="M198.89,350.79a63.57,63.57,0,0,1-9.47-14.05c-1-2-1.81-4-2.59-6.08A61.92,61.92,0,0,1,183,309a62.56,62.56,0,0,1,8.68-32,63.63,63.63,0,0,1,39.67-29.36c1.2-.3,2.35-.54,3.55-.72h0c.91-.18,1.81-.3,2.71-.42.13,0,.25-.07.37-.07a14.71,14.71,0,0,1,1.62-.12c.31-.06.55-.06.85-.12,1.87-.18,3.74-.24,5.6-.24,1,0,2,0,3.08.06-1.51-.12-3-.18-4.52-.24h-.06c-4.34-.24-8.74-.36-13.14-.36h-.12a247.15,247.15,0,0,0-32.31,2A250,250,0,0,0,77.42,297.8c-4.58,3.44-9,7.12-13.26,10.91-.3.3-.66.67-1,1a248.27,248.27,0,0,0-28.21,29.78h-.06A157.7,157.7,0,0,0,16.24,490.4v.06c1.14,2.89,2.35,5.72,3.68,8.56a158,158,0,0,0,79.81,77.45l29-65.94,55.94-127.37Z" transform="translate(-4.97 -9.19)"/><path class="cls-1" d="M199.13,115a48.13,48.13,0,0,0,.3-5.91,62.93,62.93,0,0,0-32.18-55,.06.06,0,0,0-.07-.06,14.66,14.66,0,0,1-1.44-.79,31.56,31.56,0,0,1-11-44.12h-.06A63,63,0,0,0,199.13,115Z" transform="translate(-4.97 -9.19)"/><path class="cls-1" d="M345,373.13h21.1V479.22a42.9,42.9,0,0,1,34.87-17c14.36,0,27.54,5.86,34.87,16.7,6.16,9.09,7,19.05,7,32.53v75.32H421.8V512c0-7.33-.59-15.83-5.57-22.27-4.1-5.28-10.55-8.79-19.93-8.79-7.32,0-15.24,2-21.39,9.37-8.21,9.67-8.79,24-8.79,32.83v63.59H345Z" transform="translate(-4.97 -9.19)"/><path class="cls-1" d="M482.74,465.15h21.1v13.19c2.05-3.23,11.13-16.12,27.54-16.12,6.45,0,13.49,2.34,18.76,5l-10,19.05a21.75,21.75,0,0,0-12.31-4.1c-8.5,0-13.78,3.51-17,7.62-3.51,4.69-7,12.89-7,32.82v64.18h-21.1Z" transform="translate(-4.97 -9.19)"/><path class="cls-1" d="M580,404.2a14.95,14.95,0,1,1-14.94,14.94A15,15,0,0,1,580,404.2Zm10.55,60.95V586.77h-21.1V465.15Z" transform="translate(-4.97 -9.19)"/></svg>