<?xml version="1.0" encoding="utf-8"?>
<!-- Generator: Adobe Illustrator 17.1.0, SVG Export Plug-In . SVG Version: 6.00 Build 0)  -->
<!DOCTYPE svg PUBLIC "-//W3C//DTD SVG 1.1//EN" "http://www.w3.org/Graphics/SVG/1.1/DTD/svg11.dtd">
<svg version="1.1" id="Layer_1" xmlns="http://www.w3.org/2000/svg" xmlns:xlink="http://www.w3.org/1999/xlink" x="0px" y="0px"
	 viewBox="0 0 687.9 700" enable-background="new 0 0 687.9 700" xml:space="preserve">
<g>
	<g>
		<defs>
			<path id="SVGID_1_" d="M212.8,148.5c0,22.1,10,41.8,25.8,54.8c1.1,0.9,2.2,1.8,3.4,2.6c6.9,5.2,14.9,9,23.5,11.2
				c0.1,0.1,0.3,0.1,0.5,0.1c8.5-6.2,17.6-11.7,27.2-16.3c2.3-1.1,4.6-2.2,7-3.2c10.1-4.4,20.6-7.8,31.5-10.2
				c4.2-1,8.5-1.8,12.9-2.4c8.5-1.2,17.2-1.9,26-1.9c13.4,0,27.8,0.5,40.3,3.3c-6-6.2-12.7-11.7-20-16.4h-0.1l-0.1-0.1
				c-10.9-7-23.2-12-36.3-14.6c-6.5-1.3-13.2-2-20.1-2h-0.4c-9.2,0-18,1.2-26.5,3.3c-0.5,0.1-1,0.3-1.5,0.4
				c-1.8,0.5-3.6,1.1-5.4,1.6c-5.9,2-11.6,4.4-17,7.3c-6.2,1.7-12.6,2.6-19.3,2.6c-20.2,0-38.4-8.4-51.3-21.9V148.5z"/>
		</defs>
		<clipPath id="SVGID_2_">
			<use xlink:href="#SVGID_1_"  overflow="visible"/>
		</clipPath>
		
			<linearGradient id="SVGID_3_" gradientUnits="userSpaceOnUse" x1="-279.3129" y1="622.0137" x2="-275.5973" y2="622.0137" gradientTransform="matrix(0 -177.4965 -177.4965 0 110717.0156 -48892.5586)">
			<stop  offset="0" style="stop-color:#F1C2DA"/>
			<stop  offset="1" style="stop-color:#A08BC1"/>
		</linearGradient>
		<rect x="212.8" y="146.7" clip-path="url(#SVGID_2_)" fill="url(#SVGID_3_)" width="198" height="70.5"/>
	</g>
	<g>
		<defs>
			<path id="SVGID_4_" d="M344.5,206.6c-4.3,0.6-8.7,1.4-12.9,2.4c-10.9,2.4-21.4,5.9-31.5,10.2c-2.4,1-4.7,2.1-7,3.2
				c-9.6,4.7-18.6,10.2-27.2,16.4c-3.6,2.6-7.1,5.4-10.5,8.3c-10.4,8.9-19.8,19-27.9,30c-21.6,29.4-34.3,65.6-34.3,104.8
				c0,0.9,0,1.8,0.1,2.6v0.1c12.9-20.1,28.4-38.4,45.9-54.7c5.8-5.4,11.8-10.4,18-15.3c23.3-18.2,49.4-32.8,77.6-43.1
				c15.4-5.6,31.5-9.9,48-12.7c14-2.4,28.3-3.9,43-4.1c2-0.1,3.9-0.1,5.9-0.1c1.7,0,3.4,0,5.1,0.1c8.2,0.1,16.4,0.6,24.4,1.5
				c14.1,1.4,27.9,3.9,41.2,7.3c-15.3-17.1-33.9-31.1-54.8-41.2c-2.2-1.2-4.5-2.2-6.8-3.2c-9.1-3.9-18.6-7.2-28.4-9.6
				c-1.1-0.2-2.1-0.5-3.2-0.7h-0.1c-12.5-2.8-25.4-4.2-38.7-4.2C361.7,204.7,353,205.3,344.5,206.6"/>
		</defs>
		<clipPath id="SVGID_5_">
			<use xlink:href="#SVGID_4_"  overflow="visible"/>
		</clipPath>
		
			<linearGradient id="SVGID_6_" gradientUnits="userSpaceOnUse" x1="-279.3435" y1="621.8653" x2="-275.6279" y2="621.8653" gradientTransform="matrix(0 -177.4965 -177.4965 0 110726.7188 -48890.5586)">
			<stop  offset="0" style="stop-color:#F1C2DA"/>
			<stop  offset="1" style="stop-color:#A08BC1"/>
		</linearGradient>
		<rect x="193.2" y="204.7" clip-path="url(#SVGID_5_)" fill="url(#SVGID_6_)" width="309.3" height="180"/>
	</g>
	<g>
		<defs>
			<path id="SVGID_7_" d="M353.3,619.9l-20.3,47.8c9.7,1.6,19.7,2.5,29.8,2.5c40.8,0,78.4-13.8,108.4-37c0-0.1,0.1-0.1,0.1-0.1
				c5.4-4.1,10.4-8.5,15.3-13.2H353.3z"/>
		</defs>
		<clipPath id="SVGID_8_">
			<use xlink:href="#SVGID_7_"  overflow="visible"/>
		</clipPath>
		
			<linearGradient id="SVGID_9_" gradientUnits="userSpaceOnUse" x1="-279.3741" y1="621.6105" x2="-275.6585" y2="621.6105" gradientTransform="matrix(0 -177.4965 -177.4965 0 110743.3672 -48888.5586)">
			<stop  offset="0" style="stop-color:#F1C2DA"/>
			<stop  offset="1" style="stop-color:#A08BC1"/>
		</linearGradient>
		<rect x="332.9" y="619.9" clip-path="url(#SVGID_8_)" fill="url(#SVGID_9_)" width="153.5" height="50.3"/>
	</g>
	<g>
		<defs>
			<polygon id="SVGID_10_" points="432.6,432.9 369.9,579.8 499.4,579.8 438.1,433.6 435.3,426.8 			"/>
		</defs>
		<clipPath id="SVGID_11_">
			<use xlink:href="#SVGID_10_"  overflow="visible"/>
		</clipPath>
		
			<linearGradient id="SVGID_12_" gradientUnits="userSpaceOnUse" x1="-279.3741" y1="621.5078" x2="-275.6585" y2="621.5078" gradientTransform="matrix(0 -177.4965 -177.4965 0 110750.0859 -48888.5586)">
			<stop  offset="0" style="stop-color:#F1C2DA"/>
			<stop  offset="1" style="stop-color:#A08BC1"/>
		</linearGradient>
		<rect x="369.9" y="426.8" clip-path="url(#SVGID_11_)" fill="url(#SVGID_12_)" width="129.5" height="153"/>
	</g>
	<g>
		<defs>
			<path id="SVGID_13_" d="M440,283.1c-12.3,0-24.5,0.7-36.3,2.3c-51.1,6.5-97.9,26.7-136.7,56.7c-5.2,3.9-10.1,8-14.9,12.3
				c-0.3,0.3-0.7,0.7-1.1,1.1c-11.5,10.2-22.1,21.5-31.7,33.5h-0.1c-8.8,12.1-16.1,25.4-21.6,39.5c-7.8,20-12.1,41.7-12.1,64.4
				c0,23.3,4.5,45.5,12.7,65.8v0.1c1.3,3.3,2.6,6.4,4.1,9.6c18.3,38.9,50.3,70,89.8,87.1l32.6-74.2l62.9-143.3l16-36.4
				c-4.2-4.7-7.8-10-10.7-15.8c-1.1-2.2-2-4.5-2.9-6.9c-2.8-7.6-4.3-15.9-4.3-24.4c0-13.2,3.5-25.5,9.8-36
				c4.8-8.1,11.2-15.2,18.7-20.8c7.6-5.7,16.4-9.9,25.9-12.2c1.4-0.3,2.6-0.6,4-0.8c1-0.2,2-0.3,3-0.5c0.1,0,0.3-0.1,0.4-0.1
				c0.6-0.1,1.2-0.1,1.8-0.1c0.3-0.1,0.6-0.1,1-0.1c2.1-0.2,4.2-0.3,6.3-0.3c1.2,0,2.3,0,3.5,0.1c-1.7-0.1-3.4-0.2-5.1-0.3h-0.1
				c-4.9-0.3-9.8-0.4-14.8-0.4H440z"/>
		</defs>
		<clipPath id="SVGID_14_">
			<use xlink:href="#SVGID_13_"  overflow="visible"/>
		</clipPath>
		
			<linearGradient id="SVGID_15_" gradientUnits="userSpaceOnUse" x1="-279.3741" y1="621.9684" x2="-275.6585" y2="621.9684" gradientTransform="matrix(0 -177.4965 -177.4965 0 110719.9688 -48888.5586)">
			<stop  offset="0" style="stop-color:#F1C2DA"/>
			<stop  offset="1" style="stop-color:#A08BC1"/>
		</linearGradient>
		<rect x="185.4" y="283.1" clip-path="url(#SVGID_14_)" fill="url(#SVGID_15_)" width="274.6" height="372.5"/>
	</g>
	<g>
		<defs>
			<path id="SVGID_16_" d="M353.9,29.7C342.2,42.4,335,59.3,335,78c0,38.5,30.7,69.8,68.9,70.9c0.3-2.2,0.3-4.4,0.3-6.6
				c0-26.6-14.6-49.7-36.2-61.8c0,0,0-0.1-0.1-0.1c-0.5-0.3-1.1-0.5-1.6-0.9c-10.6-6.1-17.8-17.6-17.8-30.7
				C348.5,41.7,350.5,35.2,353.9,29.7L353.9,29.7z"/>
		</defs>
		<clipPath id="SVGID_17_">
			<use xlink:href="#SVGID_16_"  overflow="visible"/>
		</clipPath>
		
			<linearGradient id="SVGID_18_" gradientUnits="userSpaceOnUse" x1="-279.3129" y1="621.7756" x2="-275.5973" y2="621.7756" gradientTransform="matrix(0 -177.4965 -177.4965 0 110732.5781 -48892.5586)">
			<stop  offset="0" style="stop-color:#F1C2DA"/>
			<stop  offset="1" style="stop-color:#A08BC1"/>
		</linearGradient>
		<rect x="335" y="29.7" clip-path="url(#SVGID_17_)" fill="url(#SVGID_18_)" width="69.2" height="119.1"/>
	</g>
</g>
</svg>
