<?xml version="1.0" encoding="utf-8"?>
<!-- Generator: Adobe Illustrator 17.1.0, SVG Export Plug-In . SVG Version: 6.00 Build 0)  -->
<!DOCTYPE svg PUBLIC "-//W3C//DTD SVG 1.1//EN" "http://www.w3.org/Graphics/SVG/1.1/DTD/svg11.dtd">
<svg version="1.1" id="Layer_1" xmlns="http://www.w3.org/2000/svg" xmlns:xlink="http://www.w3.org/1999/xlink" x="0px" y="0px"
	 viewBox="0 0 123 117" enable-background="new 0 0 123 117" xml:space="preserve">
<g>
	<defs>
		<path id="SVGID_1_" d="M-264.2-276.9c0,5.9,2.7,11.2,7,14.7c0.3,0.2,0.6,0.5,0.9,0.7c1.9,1.4,4,2.4,6.3,3c0,0,0.1,0,0.1,0
			c2.3-1.7,4.7-3.2,7.3-4.4c0.6-0.3,1.2-0.6,1.9-0.9c2.7-1.2,5.6-2.1,8.5-2.8c1.1-0.3,2.3-0.5,3.5-0.7c2.3-0.3,4.6-0.5,7-0.5
			c3.6,0,7.5,0.1,10.8,0.9c-1.6-1.7-3.4-3.2-5.4-4.4h0l0,0c-2.9-1.9-6.2-3.2-9.8-3.9c-1.8-0.3-3.6-0.5-5.4-0.5h-0.1
			c-2.5,0-4.9,0.3-7.1,0.9c-0.1,0-0.3,0.1-0.4,0.1c-0.5,0.1-1,0.3-1.4,0.4c-1.6,0.5-3.1,1.2-4.6,2c-1.7,0.5-3.4,0.7-5.2,0.7
			c-5.4,0-10.3-2.3-13.8-5.9V-276.9z"/>
	</defs>
	<clipPath id="SVGID_2_">
		<use xlink:href="#SVGID_1_"  overflow="visible"/>
	</clipPath>
	
		<linearGradient id="SVGID_3_" gradientUnits="userSpaceOnUse" x1="-455" y1="199" x2="-454" y2="199" gradientTransform="matrix(0 184.738 184.738 0 -37000.3984 83742.7344)">
		<stop  offset="0" style="stop-color:#A6C1E5"/>
		<stop  offset="1" style="stop-color:#C2E9FB"/>
	</linearGradient>
	<rect x="-264.2" y="-277.4" clip-path="url(#SVGID_2_)" fill="url(#SVGID_3_)" width="53.3" height="19"/>
</g>
<g>
	<defs>
		<path id="SVGID_4_" d="M-228.7-261.3c-1.2,0.2-2.3,0.4-3.5,0.6c-2.9,0.7-5.8,1.6-8.5,2.8c-0.6,0.3-1.3,0.6-1.9,0.9
			c-2.6,1.3-5,2.7-7.3,4.4c-1,0.7-1.9,1.5-2.8,2.2c-2.8,2.4-5.3,5.1-7.5,8.1c-5.8,7.9-9.2,17.6-9.2,28.2c0,0.2,0,0.5,0,0.7v0
			c3.5-5.4,7.6-10.3,12.4-14.7c1.6-1.4,3.2-2.8,4.9-4.1c6.3-4.9,13.3-8.8,20.9-11.6c4.1-1.5,8.5-2.7,12.9-3.4
			c3.8-0.7,7.6-1,11.6-1.1c0.5,0,1.1,0,1.6,0c0.5,0,0.9,0,1.4,0c2.2,0,4.4,0.2,6.6,0.4c3.8,0.4,7.5,1,11.1,2
			c-4.1-4.6-9.1-8.4-14.7-11.1c-0.6-0.3-1.2-0.6-1.8-0.9c-2.4-1.1-5-1.9-7.6-2.6c-0.3-0.1-0.6-0.1-0.9-0.2h0
			c-3.4-0.7-6.8-1.1-10.4-1.1C-224.1-261.8-226.4-261.6-228.7-261.3"/>
	</defs>
	<clipPath id="SVGID_5_">
		<use xlink:href="#SVGID_4_"  overflow="visible"/>
	</clipPath>
	
		<linearGradient id="SVGID_6_" gradientUnits="userSpaceOnUse" x1="-455" y1="199" x2="-454" y2="199" gradientTransform="matrix(0 184.738 184.738 0 -36990.6953 83744.7344)">
		<stop  offset="0" style="stop-color:#A6C1E5"/>
		<stop  offset="1" style="stop-color:#C2E9FB"/>
	</linearGradient>
	<rect x="-269.4" y="-261.8" clip-path="url(#SVGID_5_)" fill="url(#SVGID_6_)" width="83.2" height="48.4"/>
</g>
<g>
	<defs>
		<path id="SVGID_7_" d="M-226.4-148l-5.5,12.9c2.6,0.4,5.3,0.7,8,0.7c11,0,21.1-3.7,29.2-10c0,0,0,0,0,0c1.4-1.1,2.8-2.3,4.1-3.6
			H-226.4z"/>
	</defs>
	<clipPath id="SVGID_8_">
		<use xlink:href="#SVGID_7_"  overflow="visible"/>
	</clipPath>
	
		<linearGradient id="SVGID_9_" gradientUnits="userSpaceOnUse" x1="-455" y1="199" x2="-454" y2="199" gradientTransform="matrix(0 184.738 184.738 0 -36974.043 83748.7344)">
		<stop  offset="0" style="stop-color:#A6C1E5"/>
		<stop  offset="1" style="stop-color:#C2E9FB"/>
	</linearGradient>
	<rect x="-231.8" y="-148" clip-path="url(#SVGID_8_)" fill="url(#SVGID_9_)" width="41.3" height="13.5"/>
</g>
<g>
	<defs>
		<polygon id="SVGID_10_" points="-205,-198.4 -221.9,-158.8 -187,-158.8 -203.5,-198.2 -204.3,-200 		"/>
	</defs>
	<clipPath id="SVGID_11_">
		<use xlink:href="#SVGID_10_"  overflow="visible"/>
	</clipPath>
	
		<linearGradient id="SVGID_12_" gradientUnits="userSpaceOnUse" x1="-455" y1="199" x2="-454" y2="199" gradientTransform="matrix(0 184.738 184.738 0 -36967.3242 83748.7344)">
		<stop  offset="0" style="stop-color:#A6C1E5"/>
		<stop  offset="1" style="stop-color:#C2E9FB"/>
	</linearGradient>
	<rect x="-221.9" y="-200" clip-path="url(#SVGID_11_)" fill="url(#SVGID_12_)" width="34.9" height="41.2"/>
</g>
<g>
	<defs>
		<path id="SVGID_13_" d="M-203-238.7c-3.3,0-6.6,0.2-9.8,0.6c-13.7,1.8-26.4,7.2-36.8,15.3c-1.4,1-2.7,2.2-4,3.3
			c-0.1,0.1-0.2,0.2-0.3,0.3c-3.1,2.8-5.9,5.8-8.5,9h0c-2.4,3.3-4.3,6.8-5.8,10.6c-2.1,5.4-3.2,11.2-3.2,17.3
			c0,6.3,1.2,12.2,3.4,17.7v0c0.3,0.9,0.7,1.7,1.1,2.6c4.9,10.5,13.5,18.8,24.2,23.5l8.8-20l16.9-38.6l4.3-9.8
			c-1.1-1.3-2.1-2.7-2.9-4.3c-0.3-0.6-0.5-1.2-0.8-1.8c-0.8-2-1.2-4.3-1.2-6.6c0-3.5,0.9-6.9,2.6-9.7c1.3-2.2,3-4.1,5-5.6
			c2-1.5,4.4-2.7,7-3.3c0.4-0.1,0.7-0.2,1.1-0.2c0.3-0.1,0.5-0.1,0.8-0.1c0,0,0.1,0,0.1,0c0.2,0,0.3,0,0.5,0c0.1,0,0.2,0,0.3,0
			c0.6-0.1,1.1-0.1,1.7-0.1c0.3,0,0.6,0,0.9,0c-0.5,0-0.9-0.1-1.4-0.1h0C-200.3-238.6-201.6-238.7-203-238.7L-203-238.7z"/>
	</defs>
	<clipPath id="SVGID_14_">
		<use xlink:href="#SVGID_13_"  overflow="visible"/>
	</clipPath>
	
		<linearGradient id="SVGID_15_" gradientUnits="userSpaceOnUse" x1="-455" y1="199" x2="-454" y2="199" gradientTransform="matrix(0 184.738 184.738 0 -36997.4414 83748.7344)">
		<stop  offset="0" style="stop-color:#A6C1E5"/>
		<stop  offset="1" style="stop-color:#C2E9FB"/>
	</linearGradient>
	<rect x="-271.5" y="-238.7" clip-path="url(#SVGID_14_)" fill="url(#SVGID_15_)" width="73.9" height="100.3"/>
</g>
<g>
	<defs>
		<path id="SVGID_16_" d="M-226.2-308.9c-3.2,3.4-5.1,8-5.1,13c0,10.4,8.3,18.8,18.5,19.1c0.1-0.6,0.1-1.2,0.1-1.8
			c0-7.2-3.9-13.4-9.7-16.6c0,0,0,0,0,0c-0.1-0.1-0.3-0.1-0.4-0.2c-2.9-1.6-4.8-4.7-4.8-8.3C-227.6-305.7-227.1-307.4-226.2-308.9
			L-226.2-308.9z"/>
	</defs>
	<clipPath id="SVGID_17_">
		<use xlink:href="#SVGID_16_"  overflow="visible"/>
	</clipPath>
	
		<linearGradient id="SVGID_18_" gradientUnits="userSpaceOnUse" x1="-455" y1="199" x2="-454" y2="199" gradientTransform="matrix(0 184.738 184.738 0 -36984.8359 83742.7344)">
		<stop  offset="0" style="stop-color:#A6C1E5"/>
		<stop  offset="1" style="stop-color:#C2E9FB"/>
	</linearGradient>
	<rect x="-231.3" y="-308.9" clip-path="url(#SVGID_17_)" fill="url(#SVGID_18_)" width="18.6" height="32.1"/>
</g>
<g>
	<defs>
		<rect id="SVGID_19_" x="-455" y="-343.3" width="1200" height="542.3"/>
	</defs>
	<clipPath id="SVGID_20_">
		<use xlink:href="#SVGID_19_"  overflow="visible"/>
	</clipPath>
	<rect x="-270.5" y="-75.6" clip-path="url(#SVGID_20_)" fill="#A7C1E5" width="36.5" height="36.5"/>
</g>
<g>
	<defs>
		<rect id="SVGID_21_" x="-317.2" y="-75.6" width="36.5" height="36.5"/>
	</defs>
	<clipPath id="SVGID_22_">
		<use xlink:href="#SVGID_21_"  overflow="visible"/>
	</clipPath>
	
		<linearGradient id="SVGID_23_" gradientUnits="userSpaceOnUse" x1="-455" y1="199" x2="-454" y2="199" gradientTransform="matrix(0 36.5032 36.5032 0 -7563.0894 16533.3613)">
		<stop  offset="0" style="stop-color:#A6C1E5"/>
		<stop  offset="1" style="stop-color:#C2E9FB"/>
	</linearGradient>
	<rect x="-317.2" y="-75.6" clip-path="url(#SVGID_22_)" fill="url(#SVGID_23_)" width="36.5" height="36.5"/>
</g>
<g>
	<defs>
		<rect id="SVGID_24_" x="-455" y="-343.3" width="1200" height="542.3"/>
	</defs>
	<clipPath id="SVGID_25_">
		<use xlink:href="#SVGID_24_"  overflow="visible"/>
	</clipPath>
	<rect x="-223.8" y="-75.6" clip-path="url(#SVGID_25_)" fill="#C2E9FB" width="36.5" height="36.5"/>
	<rect x="-177" y="-75.6" clip-path="url(#SVGID_25_)" width="36.5" height="36.5"/>
</g>
<g>
	<defs>
		<path id="SVGID_26_" d="M-361,25c0,3.3,1.5,6.1,3.8,8.1c0.2,0.1,0.3,0.3,0.5,0.4c1,0.8,2.2,1.3,3.5,1.6c0,0,0,0,0.1,0
			c1.3-0.9,2.6-1.7,4-2.4c0.3-0.2,0.7-0.3,1-0.5c1.5-0.6,3-1.1,4.6-1.5c0.6-0.1,1.3-0.3,1.9-0.4c1.2-0.2,2.5-0.3,3.8-0.3
			c2,0,4.1,0.1,5.9,0.5c-0.9-0.9-1.9-1.7-2.9-2.4h0l0,0c-1.6-1-3.4-1.8-5.3-2.1c-1-0.2-1.9-0.3-3-0.3h-0.1c-1.3,0-2.7,0.2-3.9,0.5
			c-0.1,0-0.1,0-0.2,0.1c-0.3,0.1-0.5,0.2-0.8,0.2c-0.9,0.3-1.7,0.6-2.5,1.1c-0.9,0.2-1.9,0.4-2.8,0.4c-3,0-5.6-1.2-7.6-3.2V25z"/>
	</defs>
	<clipPath id="SVGID_27_">
		<use xlink:href="#SVGID_26_"  overflow="visible"/>
	</clipPath>
	
		<linearGradient id="SVGID_28_" gradientUnits="userSpaceOnUse" x1="-455" y1="199" x2="-454" y2="199" gradientTransform="matrix(0 100.9799 100.9799 0 -20441.4062 45951.1211)">
		<stop  offset="0" style="stop-color:#A6C1E5"/>
		<stop  offset="1" style="stop-color:#C2E9FB"/>
	</linearGradient>
	<rect x="-361" y="24.8" clip-path="url(#SVGID_27_)" fill="url(#SVGID_28_)" width="29.1" height="10.4"/>
</g>
<g>
	<defs>
		<path id="SVGID_29_" d="M-341.6,34.5c-0.6,0.1-1.3,0.2-1.9,0.3c-1.6,0.4-3.2,0.9-4.6,1.5c-0.3,0.2-0.7,0.3-1,0.5
			c-1.4,0.7-2.7,1.5-4,2.4c-0.5,0.4-1,0.8-1.5,1.2c-1.5,1.3-2.9,2.8-4.1,4.4c-3.2,4.3-5,9.6-5,15.4c0,0.1,0,0.3,0,0.4v0
			c1.9-3,4.2-5.7,6.8-8c0.9-0.8,1.7-1.5,2.7-2.3c3.4-2.7,7.3-4.8,11.4-6.3c2.3-0.8,4.6-1.5,7.1-1.9c2.1-0.4,4.2-0.6,6.3-0.6
			c0.3,0,0.6,0,0.9,0c0.2,0,0.5,0,0.7,0c1.2,0,2.4,0.1,3.6,0.2c2.1,0.2,4.1,0.6,6.1,1.1c-2.3-2.5-5-4.6-8.1-6.1
			c-0.3-0.2-0.7-0.3-1-0.5c-1.3-0.6-2.7-1.1-4.2-1.4c-0.2,0-0.3-0.1-0.5-0.1h0c-1.8-0.4-3.7-0.6-5.7-0.6
			C-339.1,34.2-340.3,34.3-341.6,34.5"/>
	</defs>
	<clipPath id="SVGID_30_">
		<use xlink:href="#SVGID_29_"  overflow="visible"/>
	</clipPath>
	
		<linearGradient id="SVGID_31_" gradientUnits="userSpaceOnUse" x1="-455" y1="199" x2="-454" y2="199" gradientTransform="matrix(0 100.9799 100.9799 0 -20436.1035 45953.1211)">
		<stop  offset="0" style="stop-color:#A6C1E5"/>
		<stop  offset="1" style="stop-color:#C2E9FB"/>
	</linearGradient>
	<rect x="-363.9" y="34.2" clip-path="url(#SVGID_30_)" fill="url(#SVGID_31_)" width="45.5" height="26.5"/>
</g>
<g>
	<defs>
		<path id="SVGID_32_" d="M-340.3,96.2l-3,7c1.4,0.2,2.9,0.4,4.4,0.4c6,0,11.5-2,15.9-5.4c0,0,0,0,0,0c0.8-0.6,1.5-1.3,2.2-1.9
			H-340.3z"/>
	</defs>
	<clipPath id="SVGID_33_">
		<use xlink:href="#SVGID_32_"  overflow="visible"/>
	</clipPath>
	
		<linearGradient id="SVGID_34_" gradientUnits="userSpaceOnUse" x1="-455" y1="199" x2="-454" y2="199" gradientTransform="matrix(0 100.9799 100.9799 0 -20427 45955.1211)">
		<stop  offset="0" style="stop-color:#A6C1E5"/>
		<stop  offset="1" style="stop-color:#C2E9FB"/>
	</linearGradient>
	<rect x="-343.3" y="96.2" clip-path="url(#SVGID_33_)" fill="url(#SVGID_34_)" width="22.6" height="7.4"/>
</g>
<g>
	<defs>
		<polygon id="SVGID_35_" points="-328.6,68.7 -337.9,90.3 -318.8,90.3 -327.8,68.8 -328.2,67.8 		"/>
	</defs>
	<clipPath id="SVGID_36_">
		<use xlink:href="#SVGID_35_"  overflow="visible"/>
	</clipPath>
	
		<linearGradient id="SVGID_37_" gradientUnits="userSpaceOnUse" x1="-455" y1="199" x2="-454" y2="199" gradientTransform="matrix(0 100.9799 100.9799 0 -20423.3281 45955.1211)">
		<stop  offset="0" style="stop-color:#A6C1E5"/>
		<stop  offset="1" style="stop-color:#C2E9FB"/>
	</linearGradient>
	<rect x="-337.9" y="67.8" clip-path="url(#SVGID_36_)" fill="url(#SVGID_37_)" width="19.1" height="22.5"/>
</g>
<g>
	<defs>
		<path id="SVGID_38_" d="M-327.5,46.7c-1.8,0-3.6,0.1-5.3,0.3c-7.5,1-14.4,3.9-20.1,8.3c-0.8,0.6-1.5,1.2-2.2,1.8
			c0,0-0.1,0.1-0.2,0.2c-1.7,1.5-3.3,3.2-4.7,4.9h0c-1.3,1.8-2.4,3.7-3.2,5.8c-1.1,2.9-1.8,6.1-1.8,9.5c0,3.4,0.7,6.7,1.9,9.7v0
			c0.2,0.5,0.4,0.9,0.6,1.4c2.7,5.7,7.4,10.3,13.2,12.8l4.8-10.9l9.3-21.1l2.4-5.4c-0.6-0.7-1.1-1.5-1.6-2.3c-0.2-0.3-0.3-0.7-0.4-1
			c-0.4-1.1-0.6-2.3-0.6-3.6c0-1.9,0.5-3.8,1.4-5.3c0.7-1.2,1.6-2.2,2.8-3.1c1.1-0.8,2.4-1.5,3.8-1.8c0.2-0.1,0.4-0.1,0.6-0.1
			c0.1,0,0.3,0,0.4-0.1c0,0,0,0,0.1,0c0.1,0,0.2,0,0.3,0c0,0,0.1,0,0.1,0c0.3,0,0.6,0,0.9,0c0.2,0,0.3,0,0.5,0c-0.2,0-0.5,0-0.7,0h0
			C-326.1,46.7-326.8,46.7-327.5,46.7L-327.5,46.7z"/>
	</defs>
	<clipPath id="SVGID_39_">
		<use xlink:href="#SVGID_38_"  overflow="visible"/>
	</clipPath>
	
		<linearGradient id="SVGID_40_" gradientUnits="userSpaceOnUse" x1="-455" y1="199" x2="-454" y2="199" gradientTransform="matrix(0 100.9799 100.9799 0 -20439.791 45955.1211)">
		<stop  offset="0" style="stop-color:#A6C1E5"/>
		<stop  offset="1" style="stop-color:#C2E9FB"/>
	</linearGradient>
	<rect x="-365" y="46.7" clip-path="url(#SVGID_39_)" fill="url(#SVGID_40_)" width="40.4" height="54.8"/>
</g>
<g>
	<defs>
		<path id="SVGID_41_" d="M-340.2,7.6c-1.7,1.9-2.8,4.4-2.8,7.1c0,5.7,4.5,10.3,10.1,10.4c0-0.3,0.1-0.6,0.1-1
			c0-3.9-2.1-7.3-5.3-9.1c0,0,0,0,0,0c-0.1,0-0.2-0.1-0.2-0.1c-1.6-0.9-2.6-2.6-2.6-4.5C-341,9.3-340.7,8.4-340.2,7.6L-340.2,7.6z"
			/>
	</defs>
	<clipPath id="SVGID_42_">
		<use xlink:href="#SVGID_41_"  overflow="visible"/>
	</clipPath>
	
		<linearGradient id="SVGID_43_" gradientUnits="userSpaceOnUse" x1="-455" y1="199" x2="-454" y2="199" gradientTransform="matrix(0 100.9799 100.9799 0 -20432.9004 45951.1211)">
		<stop  offset="0" style="stop-color:#A6C1E5"/>
		<stop  offset="1" style="stop-color:#C2E9FB"/>
	</linearGradient>
	<rect x="-343" y="7.6" clip-path="url(#SVGID_42_)" fill="url(#SVGID_43_)" width="10.2" height="17.5"/>
</g>
<g>
	<defs>
		<rect id="SVGID_44_" x="-455" y="-343.3" width="1200" height="542.3"/>
	</defs>
	<clipPath id="SVGID_45_">
		<use xlink:href="#SVGID_44_"  overflow="visible"/>
	</clipPath>
	<path clip-path="url(#SVGID_45_)" d="M-308.7,63.3h3.9v19.8c0.7-0.9,2.7-3.2,6.5-3.2c2.7,0,5.1,1.1,6.5,3.1
		c1.1,1.7,1.3,3.6,1.3,6.1v14h-3.9V89.2c0-1.4-0.1-3-1-4.2c-0.8-1-2-1.6-3.7-1.6c-1.4,0-2.8,0.4-4,1.7c-1.5,1.8-1.6,4.5-1.6,6.1
		v11.9h-3.9V63.3z"/>
	<path clip-path="url(#SVGID_45_)" d="M-283,80.5h3.9v2.5c0.4-0.6,2.1-3,5.1-3c1.2,0,2.5,0.4,3.5,0.9l-1.9,3.6
		c-0.9-0.6-1.7-0.8-2.3-0.8c-1.6,0-2.6,0.7-3.2,1.4c-0.7,0.9-1.3,2.4-1.3,6.1v12h-3.9V80.5z"/>
	<path clip-path="url(#SVGID_45_)" d="M-264.9,69.1c1.5,0,2.8,1.3,2.8,2.8c0,1.5-1.3,2.8-2.8,2.8c-1.5,0-2.8-1.3-2.8-2.8
		C-267.7,70.4-266.4,69.1-264.9,69.1 M-262.9,103.2h-3.9V80.5h3.9V103.2z"/>
	<path clip-path="url(#SVGID_45_)" d="M-241.8,66.7h7.4c3.7,0,8.9,0.4,13.4,4.3c3.3,2.8,6.2,7.4,6.2,14c0,7.7-3.8,11.8-6.4,14
		c-3.3,2.8-6.8,4.2-13.3,4.2h-7.4V66.7z M-237.7,99.3h3.6c2.9,0,6.9-0.3,10.4-3.3c2.7-2.3,4.9-5.9,4.9-11.1
		c0-8.7-6.1-14.4-15.4-14.4h-3.6V99.3z"/>
	<path clip-path="url(#SVGID_45_)" d="M-190.8,80.5h3.9v22.7h-3.9V100c-1.3,1.7-3.8,3.8-7.8,3.8c-5.7,0-11-4-11-12
		c0-7.8,5.2-11.9,11-11.9c4.4,0,6.7,2.4,7.8,3.8V80.5z M-205.6,91.8c0,4.9,2.7,8.5,7.4,8.5c4.8,0,7.5-4,7.5-8.5c0-5.8-4-8.4-7.5-8.4
		C-202,83.4-205.6,86.3-205.6,91.8"/>
	<path clip-path="url(#SVGID_45_)" d="M-179.4,80.5h3.9v2.6c0.7-0.9,2.7-3.2,6.5-3.2c2.7,0,5.1,1.1,6.5,3.1c1.1,1.7,1.3,3.6,1.3,6.1
		v14h-3.9V89.2c0-1.4-0.1-3-1-4.2c-0.8-1-2-1.6-3.7-1.6c-1.4,0-2.8,0.4-4,1.7c-1.5,1.8-1.6,4.5-1.6,6.1v11.9h-3.9V80.5z"/>
	<path clip-path="url(#SVGID_45_)" d="M-151.8,69.1c1.5,0,2.8,1.3,2.8,2.8c0,1.5-1.3,2.8-2.8,2.8c-1.5,0-2.8-1.3-2.8-2.8
		C-154.6,70.4-153.3,69.1-151.8,69.1 M-149.8,103.2h-3.9V80.5h3.9V103.2z"/>
	<path clip-path="url(#SVGID_45_)" d="M-122.3,97.4c-0.7,1.3-1.6,2.6-2.8,3.7c-2.1,1.9-4.6,2.8-7.5,2.8c-5.5,0-11.2-3.4-11.2-11.9
		c0-6.8,4.2-12,11-12c4.4,0,7.2,2.2,8.6,4.2c1.4,2,2.2,5.5,2.1,8.5h-17.7c0.1,4.7,3.3,7.7,7.2,7.7c1.9,0,3.3-0.5,4.6-1.6
		c1-0.9,1.9-2,2.4-3.1L-122.3,97.4z M-126.2,89.3c-0.7-3.6-3.3-5.9-6.7-5.9c-3.3,0-6.1,2.5-6.7,5.9H-126.2z"/>
	<rect x="-116.1" y="63.3" clip-path="url(#SVGID_45_)" width="3.9" height="39.8"/>
	<path clip-path="url(#SVGID_45_)" d="M-95.4,85.7c-0.5-1.3-1.7-2.3-3.2-2.3c-1.4,0-2.7,0.8-2.7,2.6c0,1.6,1.1,2.1,3.7,3.2
		c3.3,1.4,4.8,2.4,5.7,3.5c1,1.2,1.2,2.4,1.2,3.7c0,4.8-3.4,7.4-7.8,7.4c-0.9,0-6-0.1-7.9-5.8l3.4-1.4c0.4,1.2,1.8,3.7,4.6,3.7
		c2.6,0,3.7-1.9,3.7-3.6c0-2.1-1.5-2.8-3.7-3.8c-2.7-1.2-4.5-2.1-5.5-3.3c-0.9-1.1-1-2.2-1-3.3c0-4,2.8-6.3,6.6-6.3
		c1.2,0,4.4,0.2,6.2,4.1L-95.4,85.7z"/>
</g>
<g>
	<defs>
		<path id="SVGID_46_" d="M109.7-269.9c0,6,2.7,11.2,7,14.7c0.3,0.2,0.6,0.5,0.9,0.7c1.9,1.4,4,2.4,6.3,3c0,0,0.1,0,0.1,0
			c2.3-1.7,4.7-3.2,7.3-4.4c0.6-0.3,1.2-0.6,1.9-0.9c2.7-1.2,5.6-2.1,8.5-2.8c1.1-0.3,2.3-0.5,3.5-0.7c2.3-0.3,4.6-0.5,7-0.5
			c3.6,0,7.5,0.1,10.8,0.9c-1.6-1.7-3.4-3.2-5.4-4.4h0l0,0c-2.9-1.9-6.2-3.2-9.8-3.9c-1.8-0.3-3.6-0.5-5.4-0.5h-0.1
			c-2.5,0-4.9,0.3-7.1,0.9c-0.1,0-0.3,0.1-0.4,0.1c-0.5,0.1-1,0.3-1.4,0.4c-1.6,0.5-3.1,1.2-4.6,2c-1.7,0.5-3.4,0.7-5.2,0.7
			c-5.4,0-10.3-2.3-13.8-5.9V-269.9z"/>
	</defs>
	<clipPath id="SVGID_47_">
		<use xlink:href="#SVGID_46_"  overflow="visible"/>
	</clipPath>
	
		<linearGradient id="SVGID_48_" gradientUnits="userSpaceOnUse" x1="-455" y1="199" x2="-454" y2="199" gradientTransform="matrix(0 -177.4965 -177.4965 0 35458.1367 -80886.5234)">
		<stop  offset="0" style="stop-color:#F1C3DB"/>
		<stop  offset="1" style="stop-color:#A18CC2"/>
	</linearGradient>
	<rect x="109.7" y="-270.4" clip-path="url(#SVGID_47_)" fill="url(#SVGID_48_)" width="53.3" height="19"/>
</g>
<g>
	<defs>
		<path id="SVGID_49_" d="M145.2-254.2c-1.2,0.2-2.3,0.4-3.5,0.6c-2.9,0.7-5.8,1.6-8.5,2.8c-0.6,0.3-1.3,0.6-1.9,0.9
			c-2.6,1.3-5,2.7-7.3,4.4c-1,0.7-1.9,1.5-2.8,2.2c-2.8,2.4-5.3,5.1-7.5,8.1c-5.8,7.9-9.2,17.6-9.2,28.2c0,0.2,0,0.5,0,0.7v0
			c3.5-5.4,7.6-10.3,12.4-14.7c1.6-1.4,3.2-2.8,4.9-4.1c6.3-4.9,13.3-8.8,20.9-11.6c4.1-1.5,8.5-2.7,12.9-3.4
			c3.8-0.7,7.6-1,11.6-1.1c0.5,0,1.1,0,1.6,0c0.5,0,0.9,0,1.4,0c2.2,0,4.4,0.2,6.6,0.4c3.8,0.4,7.5,1,11.1,2
			c-4.1-4.6-9.1-8.4-14.7-11.1c-0.6-0.3-1.2-0.6-1.8-0.9c-2.4-1.1-5-1.9-7.6-2.6c-0.3-0.1-0.6-0.1-0.9-0.2h0
			c-3.4-0.7-6.8-1.1-10.4-1.1C149.8-254.7,147.4-254.6,145.2-254.2"/>
	</defs>
	<clipPath id="SVGID_50_">
		<use xlink:href="#SVGID_49_"  overflow="visible"/>
	</clipPath>
	
		<linearGradient id="SVGID_51_" gradientUnits="userSpaceOnUse" x1="-455" y1="199" x2="-454" y2="199" gradientTransform="matrix(0 -177.4965 -177.4965 0 35467.8398 -80884.5234)">
		<stop  offset="0" style="stop-color:#F1C3DB"/>
		<stop  offset="1" style="stop-color:#A18CC2"/>
	</linearGradient>
	<rect x="104.4" y="-254.7" clip-path="url(#SVGID_50_)" fill="url(#SVGID_51_)" width="83.2" height="48.4"/>
</g>
<g>
	<defs>
		<path id="SVGID_52_" d="M147.5-143l-5.5,12.9c2.6,0.4,5.3,0.7,8,0.7c11,0,21.1-3.7,29.2-10c0,0,0,0,0,0c1.4-1.1,2.8-2.3,4.1-3.6
			H147.5z"/>
	</defs>
	<clipPath id="SVGID_53_">
		<use xlink:href="#SVGID_52_"  overflow="visible"/>
	</clipPath>
	
		<linearGradient id="SVGID_54_" gradientUnits="userSpaceOnUse" x1="-455" y1="199" x2="-454" y2="199" gradientTransform="matrix(0 -177.4965 -177.4965 0 35484.4922 -80882.5234)">
		<stop  offset="0" style="stop-color:#F1C3DB"/>
		<stop  offset="1" style="stop-color:#A18CC2"/>
	</linearGradient>
	<rect x="142" y="-143" clip-path="url(#SVGID_53_)" fill="url(#SVGID_54_)" width="41.3" height="13.5"/>
</g>
<g>
	<defs>
		<polygon id="SVGID_55_" points="168.9,-193.3 152,-153.8 186.8,-153.8 170.3,-193.2 169.6,-195 		"/>
	</defs>
	<clipPath id="SVGID_56_">
		<use xlink:href="#SVGID_55_"  overflow="visible"/>
	</clipPath>
	
		<linearGradient id="SVGID_57_" gradientUnits="userSpaceOnUse" x1="-455" y1="199" x2="-454" y2="199" gradientTransform="matrix(0 -177.4965 -177.4965 0 35491.2109 -80882.5234)">
		<stop  offset="0" style="stop-color:#F1C3DB"/>
		<stop  offset="1" style="stop-color:#A18CC2"/>
	</linearGradient>
	<rect x="152" y="-195" clip-path="url(#SVGID_56_)" fill="url(#SVGID_57_)" width="34.9" height="41.2"/>
</g>
<g>
	<defs>
		<path id="SVGID_58_" d="M170.9-233.7c-3.3,0-6.6,0.2-9.8,0.6c-13.7,1.8-26.4,7.2-36.8,15.3c-1.4,1-2.7,2.2-4,3.3
			c-0.1,0.1-0.2,0.2-0.3,0.3c-3.1,2.8-6,5.8-8.5,9h0c-2.4,3.3-4.3,6.8-5.8,10.6c-2.1,5.4-3.2,11.2-3.2,17.3c0,6.3,1.2,12.2,3.4,17.7
			v0c0.3,0.9,0.7,1.7,1.1,2.6c4.9,10.5,13.5,18.8,24.2,23.5l8.8-20l16.9-38.6l4.3-9.8c-1.1-1.3-2.1-2.7-2.9-4.3
			c-0.3-0.6-0.5-1.2-0.8-1.8c-0.8-2-1.2-4.3-1.2-6.6c0-3.5,1-6.9,2.6-9.7c1.3-2.2,3-4.1,5-5.6c2-1.5,4.4-2.7,7-3.3
			c0.4-0.1,0.7-0.2,1.1-0.2c0.3-0.1,0.5-0.1,0.8-0.1c0,0,0.1,0,0.1,0c0.2,0,0.3,0,0.5,0c0.1,0,0.2,0,0.3,0c0.6-0.1,1.1-0.1,1.7-0.1
			c0.3,0,0.6,0,0.9,0c-0.5,0-0.9-0.1-1.4-0.1h0C173.6-233.6,172.2-233.7,170.9-233.7L170.9-233.7z"/>
	</defs>
	<clipPath id="SVGID_59_">
		<use xlink:href="#SVGID_58_"  overflow="visible"/>
	</clipPath>
	
		<linearGradient id="SVGID_60_" gradientUnits="userSpaceOnUse" x1="-455" y1="199" x2="-454" y2="199" gradientTransform="matrix(0 -177.4965 -177.4965 0 35461.0938 -80882.5234)">
		<stop  offset="0" style="stop-color:#F1C3DB"/>
		<stop  offset="1" style="stop-color:#A18CC2"/>
	</linearGradient>
	<rect x="102.3" y="-233.7" clip-path="url(#SVGID_59_)" fill="url(#SVGID_60_)" width="73.9" height="100.3"/>
</g>
<g>
	<defs>
		<path id="SVGID_61_" d="M147.7-301.8c-3.2,3.4-5.1,8-5.1,13c0,10.4,8.3,18.8,18.5,19.1c0.1-0.6,0.1-1.2,0.1-1.8
			c0-7.2-3.9-13.4-9.7-16.6c0,0,0,0,0,0c-0.1-0.1-0.3-0.1-0.4-0.2c-2.9-1.6-4.8-4.7-4.8-8.3C146.2-298.6,146.8-300.4,147.7-301.8
			L147.7-301.8z"/>
	</defs>
	<clipPath id="SVGID_62_">
		<use xlink:href="#SVGID_61_"  overflow="visible"/>
	</clipPath>
	
		<linearGradient id="SVGID_63_" gradientUnits="userSpaceOnUse" x1="-455" y1="199" x2="-454" y2="199" gradientTransform="matrix(0 -177.4965 -177.4965 0 35473.6992 -80886.5234)">
		<stop  offset="0" style="stop-color:#F1C3DB"/>
		<stop  offset="1" style="stop-color:#A18CC2"/>
	</linearGradient>
	<rect x="142.6" y="-301.8" clip-path="url(#SVGID_62_)" fill="url(#SVGID_63_)" width="18.6" height="32"/>
</g>
<g>
	<defs>
		<rect id="SVGID_64_" x="-455" y="-343.3" width="1200" height="542.3"/>
	</defs>
	<clipPath id="SVGID_65_">
		<use xlink:href="#SVGID_64_"  overflow="visible"/>
	</clipPath>
	<rect x="103.4" y="-68.6" clip-path="url(#SVGID_65_)" fill="#A18CC2" width="36.5" height="36.5"/>
</g>
<g>
	<defs>
		<rect id="SVGID_66_" x="56.7" y="-68.6" width="36.5" height="36.5"/>
	</defs>
	<clipPath id="SVGID_67_">
		<use xlink:href="#SVGID_66_"  overflow="visible"/>
	</clipPath>
	
		<linearGradient id="SVGID_68_" gradientUnits="userSpaceOnUse" x1="-455" y1="199" x2="-454" y2="199" gradientTransform="matrix(0 36.5032 36.5032 0 -7189.2222 16540.3789)">
		<stop  offset="0" style="stop-color:#F1C3DB"/>
		<stop  offset="1" style="stop-color:#A18CC2"/>
	</linearGradient>
	<rect x="56.7" y="-68.6" clip-path="url(#SVGID_67_)" fill="url(#SVGID_68_)" width="36.5" height="36.5"/>
</g>
<g>
	<defs>
		<rect id="SVGID_69_" x="-455" y="-343.3" width="1200" height="542.3"/>
	</defs>
	<clipPath id="SVGID_70_">
		<use xlink:href="#SVGID_69_"  overflow="visible"/>
	</clipPath>
	<rect x="150.1" y="-68.6" clip-path="url(#SVGID_70_)" fill="#F1C3DB" width="36.5" height="36.5"/>
	<rect x="196.8" y="-68.6" clip-path="url(#SVGID_70_)" width="36.5" height="36.5"/>
</g>
<g>
	<defs>
		<path id="SVGID_71_" d="M12.9,25c0,3.3,1.5,6.1,3.8,8.1c0.2,0.1,0.3,0.3,0.5,0.4c1,0.8,2.2,1.3,3.5,1.6c0,0,0,0,0.1,0
			c1.3-0.9,2.6-1.7,4-2.4c0.3-0.2,0.7-0.3,1-0.5c1.5-0.6,3-1.1,4.6-1.5c0.6-0.1,1.3-0.3,1.9-0.4c1.2-0.2,2.5-0.3,3.8-0.3
			c2,0,4.1,0.1,5.9,0.5c-0.9-0.9-1.9-1.7-2.9-2.4h0l0,0c-1.6-1-3.4-1.8-5.3-2.1c-1-0.2-1.9-0.3-3-0.3h-0.1c-1.3,0-2.7,0.2-3.9,0.5
			c-0.1,0-0.1,0-0.2,0.1c-0.3,0.1-0.5,0.2-0.8,0.2c-0.9,0.3-1.7,0.6-2.5,1.1c-0.9,0.2-1.9,0.4-2.8,0.4c-3,0-5.6-1.2-7.6-3.2V25z"/>
	</defs>
	<clipPath id="SVGID_72_">
		<use xlink:href="#SVGID_71_"  overflow="visible"/>
	</clipPath>
	
		<linearGradient id="SVGID_73_" gradientUnits="userSpaceOnUse" x1="-455" y1="199" x2="-454" y2="199" gradientTransform="matrix(0 -89.627 -89.627 0 17863.2285 -40679.8477)">
		<stop  offset="0" style="stop-color:#F1C3DB"/>
		<stop  offset="1" style="stop-color:#A18CC2"/>
	</linearGradient>
	<rect x="12.9" y="24.8" clip-path="url(#SVGID_72_)" fill="url(#SVGID_73_)" width="29.1" height="10.4"/>
</g>
<g>
	<defs>
		<path id="SVGID_74_" d="M32.3,34.5c-0.6,0.1-1.3,0.2-1.9,0.3c-1.6,0.4-3.2,0.9-4.6,1.5c-0.4,0.2-0.7,0.3-1,0.5
			c-1.4,0.7-2.7,1.5-4,2.4c-0.5,0.4-1,0.8-1.5,1.2c-1.5,1.3-2.9,2.8-4.1,4.4c-3.2,4.3-5,9.6-5,15.4c0,0.1,0,0.3,0,0.4v0
			c1.9-3,4.2-5.7,6.8-8c0.9-0.8,1.7-1.5,2.7-2.3c3.4-2.7,7.3-4.8,11.4-6.3c2.3-0.8,4.6-1.5,7.1-1.9c2.1-0.4,4.2-0.6,6.3-0.6
			c0.3,0,0.6,0,0.9,0c0.2,0,0.5,0,0.7,0c1.2,0,2.4,0.1,3.6,0.2c2.1,0.2,4.1,0.6,6.1,1.1c-2.3-2.5-5-4.6-8.1-6.1
			c-0.3-0.2-0.7-0.3-1-0.5c-1.3-0.6-2.7-1.1-4.2-1.4c-0.2,0-0.3-0.1-0.5-0.1h0c-1.8-0.4-3.7-0.6-5.7-0.6
			C34.8,34.2,33.5,34.3,32.3,34.5"/>
	</defs>
	<clipPath id="SVGID_75_">
		<use xlink:href="#SVGID_74_"  overflow="visible"/>
	</clipPath>
	
		<linearGradient id="SVGID_76_" gradientUnits="userSpaceOnUse" x1="-455" y1="199" x2="-454" y2="199" gradientTransform="matrix(0 -89.627 -89.627 0 17868.5312 -40677.8477)">
		<stop  offset="0" style="stop-color:#F1C3DB"/>
		<stop  offset="1" style="stop-color:#A18CC2"/>
	</linearGradient>
	<rect x="10" y="34.2" clip-path="url(#SVGID_75_)" fill="url(#SVGID_76_)" width="45.5" height="26.5"/>
</g>
<g>
	<defs>
		<path id="SVGID_77_" d="M33.6,96.2l-3,7c1.4,0.2,2.9,0.4,4.4,0.4c6,0,11.5-2,15.9-5.4c0,0,0,0,0,0c0.8-0.6,1.5-1.3,2.2-1.9H33.6z"
			/>
	</defs>
	<clipPath id="SVGID_78_">
		<use xlink:href="#SVGID_77_"  overflow="visible"/>
	</clipPath>
	
		<linearGradient id="SVGID_79_" gradientUnits="userSpaceOnUse" x1="-455" y1="199" x2="-454" y2="199" gradientTransform="matrix(0 -89.627 -89.627 0 17877.6348 -40675.8477)">
		<stop  offset="0" style="stop-color:#F1C3DB"/>
		<stop  offset="1" style="stop-color:#A18CC2"/>
	</linearGradient>
	<rect x="30.6" y="96.2" clip-path="url(#SVGID_78_)" fill="url(#SVGID_79_)" width="22.6" height="7.4"/>
</g>
<g>
	<defs>
		<polygon id="SVGID_80_" points="45.2,68.7 36,90.3 55.1,90.3 46,68.8 45.6,67.8 		"/>
	</defs>
	<clipPath id="SVGID_81_">
		<use xlink:href="#SVGID_80_"  overflow="visible"/>
	</clipPath>
	
		<linearGradient id="SVGID_82_" gradientUnits="userSpaceOnUse" x1="-455" y1="199" x2="-454" y2="199" gradientTransform="matrix(0 -89.627 -89.627 0 17881.3066 -40675.8477)">
		<stop  offset="0" style="stop-color:#F1C3DB"/>
		<stop  offset="1" style="stop-color:#A18CC2"/>
	</linearGradient>
	<rect x="36" y="67.8" clip-path="url(#SVGID_81_)" fill="url(#SVGID_82_)" width="19.1" height="22.5"/>
</g>
<g>
	<defs>
		<path id="SVGID_83_" d="M46.3,46.7c-1.8,0-3.6,0.1-5.3,0.3c-7.5,1-14.4,3.9-20.1,8.3c-0.8,0.6-1.5,1.2-2.2,1.8
			c-0.1,0-0.1,0.1-0.2,0.2c-1.7,1.5-3.3,3.2-4.7,4.9h0c-1.3,1.8-2.4,3.7-3.2,5.8c-1.1,2.9-1.8,6.1-1.8,9.5c0,3.4,0.7,6.7,1.9,9.7v0
			c0.2,0.5,0.4,0.9,0.6,1.4c2.7,5.7,7.4,10.3,13.2,12.8l4.8-10.9l9.3-21.1l2.4-5.4c-0.6-0.7-1.1-1.5-1.6-2.3c-0.2-0.3-0.3-0.7-0.4-1
			c-0.4-1.1-0.6-2.3-0.6-3.6c0-1.9,0.5-3.8,1.4-5.3c0.7-1.2,1.6-2.2,2.8-3.1c1.1-0.8,2.4-1.5,3.8-1.8c0.2-0.1,0.4-0.1,0.6-0.1
			c0.1,0,0.3,0,0.4-0.1c0,0,0,0,0.1,0c0.1,0,0.2,0,0.3,0c0,0,0.1,0,0.1,0c0.3,0,0.6,0,0.9,0c0.2,0,0.3,0,0.5,0c-0.2,0-0.5,0-0.7,0h0
			C47.8,46.7,47.1,46.7,46.3,46.7L46.3,46.7z"/>
	</defs>
	<clipPath id="SVGID_84_">
		<use xlink:href="#SVGID_83_"  overflow="visible"/>
	</clipPath>
	
		<linearGradient id="SVGID_85_" gradientUnits="userSpaceOnUse" x1="-455" y1="199" x2="-454" y2="199" gradientTransform="matrix(0 -89.627 -89.627 0 17864.8457 -40675.8477)">
		<stop  offset="0" style="stop-color:#F1C3DB"/>
		<stop  offset="1" style="stop-color:#A18CC2"/>
	</linearGradient>
	<rect x="8.9" y="46.7" clip-path="url(#SVGID_84_)" fill="url(#SVGID_85_)" width="40.4" height="54.8"/>
</g>
<g>
	<defs>
		<path id="SVGID_86_" d="M33.6,7.6c-1.7,1.9-2.8,4.4-2.8,7.1c0,5.7,4.5,10.3,10.1,10.4c0-0.3,0-0.6,0-1c0-3.9-2.1-7.3-5.3-9.1
			c0,0,0,0,0,0c-0.1,0-0.2-0.1-0.2-0.1c-1.6-0.9-2.6-2.6-2.6-4.5C32.9,9.3,33.2,8.4,33.6,7.6L33.6,7.6z"/>
	</defs>
	<clipPath id="SVGID_87_">
		<use xlink:href="#SVGID_86_"  overflow="visible"/>
	</clipPath>
	
		<linearGradient id="SVGID_88_" gradientUnits="userSpaceOnUse" x1="-455" y1="199" x2="-454" y2="199" gradientTransform="matrix(0 -89.627 -89.627 0 17871.7344 -40679.8477)">
		<stop  offset="0" style="stop-color:#F1C3DB"/>
		<stop  offset="1" style="stop-color:#A18CC2"/>
	</linearGradient>
	<rect x="30.9" y="7.6" clip-path="url(#SVGID_87_)" fill="url(#SVGID_88_)" width="10.2" height="17.5"/>
</g>
<g>
	<defs>
		<rect id="SVGID_89_" x="-455" y="-343.3" width="1200" height="542.3"/>
	</defs>
	<clipPath id="SVGID_90_">
		<use xlink:href="#SVGID_89_"  overflow="visible"/>
	</clipPath>
	<path clip-path="url(#SVGID_90_)" d="M65.1,63.3h3.9v19.8c0.7-0.9,2.7-3.2,6.5-3.2c2.7,0,5.1,1.1,6.5,3.1c1.1,1.7,1.3,3.6,1.3,6.1
		v14h-3.9V89.2c0-1.4-0.1-3-1-4.2c-0.8-1-2-1.6-3.7-1.6c-1.4,0-2.8,0.4-4,1.7c-1.5,1.8-1.6,4.5-1.6,6.1v11.9h-3.9V63.3z"/>
	<path clip-path="url(#SVGID_90_)" d="M90.8,80.5h3.9v2.5c0.4-0.6,2.1-3,5.1-3c1.2,0,2.5,0.4,3.5,0.9l-1.9,3.6
		c-0.9-0.6-1.7-0.8-2.3-0.8c-1.6,0-2.6,0.7-3.2,1.4c-0.7,0.9-1.3,2.4-1.3,6.1v12h-3.9V80.5z"/>
	<path clip-path="url(#SVGID_90_)" d="M109,69.1c1.5,0,2.8,1.3,2.8,2.8c0,1.5-1.3,2.8-2.8,2.8c-1.5,0-2.8-1.3-2.8-2.8
		C106.2,70.4,107.5,69.1,109,69.1 M111,103.2H107V80.5h3.9V103.2z"/>
	<path clip-path="url(#SVGID_90_)" d="M132.1,66.7h7.4c3.7,0,8.9,0.4,13.4,4.3c3.3,2.8,6.2,7.4,6.2,14c0,7.7-3.8,11.8-6.4,14
		c-3.3,2.8-6.8,4.2-13.3,4.2h-7.4V66.7z M136.2,99.3h3.6c2.9,0,6.9-0.3,10.4-3.3c2.7-2.3,4.9-5.9,4.9-11.1c0-8.7-6.1-14.4-15.4-14.4
		h-3.6V99.3z"/>
	<path clip-path="url(#SVGID_90_)" d="M183.1,80.5h3.9v22.7h-3.9V100c-1.3,1.7-3.8,3.8-7.8,3.8c-5.7,0-11-4-11-12
		c0-7.8,5.2-11.9,11-11.9c4.4,0,6.7,2.4,7.8,3.8V80.5z M168.3,91.8c0,4.9,2.7,8.5,7.4,8.5c4.8,0,7.5-4,7.5-8.5c0-5.8-4-8.4-7.5-8.4
		C171.8,83.4,168.3,86.3,168.3,91.8"/>
	<path clip-path="url(#SVGID_90_)" d="M194.4,80.5h3.9v2.6c0.7-0.9,2.7-3.2,6.5-3.2c2.7,0,5.1,1.1,6.5,3.1c1.1,1.7,1.3,3.6,1.3,6.1
		v14h-3.9V89.2c0-1.4-0.1-3-1-4.2c-0.8-1-2-1.6-3.7-1.6c-1.4,0-2.8,0.4-4,1.7c-1.5,1.8-1.6,4.5-1.6,6.1v11.9h-3.9V80.5z"/>
	<path clip-path="url(#SVGID_90_)" d="M222.1,69.1c1.5,0,2.8,1.3,2.8,2.8c0,1.5-1.3,2.8-2.8,2.8s-2.8-1.3-2.8-2.8
		C219.3,70.4,220.5,69.1,222.1,69.1 M224,103.2h-3.9V80.5h3.9V103.2z"/>
	<path clip-path="url(#SVGID_90_)" d="M251.6,97.4c-0.7,1.3-1.6,2.6-2.8,3.7c-2.1,1.9-4.6,2.8-7.5,2.8c-5.5,0-11.2-3.4-11.2-11.9
		c0-6.8,4.2-12,11-12c4.4,0,7.2,2.2,8.6,4.2c1.4,2,2.2,5.5,2.1,8.5h-17.7c0.1,4.7,3.3,7.7,7.2,7.7c1.9,0,3.3-0.5,4.6-1.6
		c1-0.9,1.9-2,2.4-3.1L251.6,97.4z M247.7,89.3c-0.7-3.6-3.3-5.9-6.7-5.9c-3.3,0-6.1,2.5-6.7,5.9H247.7z"/>
	<rect x="257.8" y="63.3" clip-path="url(#SVGID_90_)" width="3.9" height="39.8"/>
	<path clip-path="url(#SVGID_90_)" d="M278.5,85.7c-0.5-1.3-1.7-2.3-3.2-2.3c-1.4,0-2.7,0.8-2.7,2.6c0,1.6,1.1,2.1,3.7,3.2
		c3.3,1.4,4.8,2.4,5.7,3.5c1,1.2,1.2,2.4,1.2,3.7c0,4.8-3.4,7.4-7.8,7.4c-0.9,0-6-0.1-7.9-5.8l3.4-1.4c0.4,1.2,1.7,3.7,4.6,3.7
		c2.6,0,3.7-1.9,3.7-3.6c0-2.1-1.5-2.8-3.7-3.8c-2.7-1.2-4.5-2.1-5.5-3.3c-0.9-1.1-1-2.2-1-3.3c0-4,2.8-6.3,6.6-6.3
		c1.2,0,4.4,0.2,6.2,4.1L278.5,85.7z"/>
</g>
<g>
	<defs>
		<path id="SVGID_91_" d="M483.6-265.6c0,6,2.7,11.2,7,14.7c0.3,0.2,0.6,0.5,0.9,0.7c1.9,1.4,4,2.4,6.3,3c0,0,0.1,0,0.1,0
			c2.3-1.7,4.7-3.2,7.3-4.4c0.6-0.3,1.2-0.6,1.9-0.9c2.7-1.2,5.5-2.1,8.5-2.8c1.1-0.3,2.3-0.5,3.5-0.7c2.3-0.3,4.6-0.5,7-0.5
			c3.6,0,7.5,0.1,10.8,0.9c-1.6-1.7-3.4-3.2-5.4-4.4h0l0,0c-2.9-1.9-6.2-3.2-9.8-3.9c-1.8-0.3-3.6-0.5-5.4-0.5h-0.1
			c-2.5,0-4.9,0.3-7.1,0.9c-0.1,0-0.3,0.1-0.4,0.1c-0.5,0.1-1,0.3-1.4,0.4c-1.6,0.5-3.1,1.2-4.6,2c-1.7,0.5-3.4,0.7-5.2,0.7
			c-5.4,0-10.3-2.3-13.8-5.9V-265.6z"/>
	</defs>
	<clipPath id="SVGID_92_">
		<use xlink:href="#SVGID_91_"  overflow="visible"/>
	</clipPath>
	
		<linearGradient id="SVGID_93_" gradientUnits="userSpaceOnUse" x1="-455" y1="199.0139" x2="-454" y2="199.0139" gradientTransform="matrix(-149.5086 149.5086 149.5086 149.5086 -97215.5781 37960.5898)">
		<stop  offset="0" style="stop-color:#EF3D23"/>
		<stop  offset="1" style="stop-color:#F8D422"/>
	</linearGradient>
	<polygon clip-path="url(#SVGID_92_)" fill="url(#SVGID_93_)" points="546.3,-256.6 510.2,-220.5 474.1,-256.6 510.2,-292.8 	"/>
</g>
<g>
	<defs>
		<path id="SVGID_94_" d="M519-250c-1.2,0.2-2.3,0.4-3.5,0.6c-2.9,0.7-5.8,1.6-8.5,2.8c-0.6,0.3-1.3,0.6-1.9,0.9
			c-2.6,1.3-5,2.7-7.3,4.4c-1,0.7-1.9,1.5-2.8,2.2c-2.8,2.4-5.3,5.1-7.5,8.1c-5.8,7.9-9.2,17.6-9.2,28.2c0,0.2,0,0.5,0,0.7v0
			c3.5-5.4,7.6-10.3,12.4-14.7c1.6-1.4,3.2-2.8,4.9-4.1c6.3-4.9,13.3-8.8,20.9-11.6c4.1-1.5,8.5-2.7,12.9-3.4
			c3.8-0.7,7.6-1,11.6-1.1c0.5,0,1.1,0,1.6,0c0.5,0,0.9,0,1.4,0c2.2,0,4.4,0.2,6.6,0.4c3.8,0.4,7.5,1,11.1,2
			c-4.1-4.6-9.1-8.4-14.7-11.1c-0.6-0.3-1.2-0.6-1.8-0.9c-2.4-1.1-5-1.9-7.6-2.6c-0.3-0.1-0.6-0.1-0.9-0.2h0
			c-3.4-0.7-6.8-1.1-10.4-1.1C523.6-250.5,521.3-250.3,519-250"/>
	</defs>
	<clipPath id="SVGID_95_">
		<use xlink:href="#SVGID_94_"  overflow="visible"/>
	</clipPath>
	
		<linearGradient id="SVGID_96_" gradientUnits="userSpaceOnUse" x1="-455" y1="199.0078" x2="-454" y2="199.0078" gradientTransform="matrix(-149.5086 149.5086 149.5086 149.5086 -97195.6328 37982.5352)">
		<stop  offset="0" style="stop-color:#EF3D23"/>
		<stop  offset="1" style="stop-color:#F8D422"/>
	</linearGradient>
	<polygon clip-path="url(#SVGID_95_)" fill="url(#SVGID_96_)" points="585.8,-226.3 519.9,-160.4 454.1,-226.3 519.9,-292.1 	"/>
</g>
<g>
	<defs>
		<path id="SVGID_97_" d="M521.4-138.7l-5.5,12.9c2.6,0.4,5.3,0.7,8,0.7c11,0,21.1-3.7,29.2-10c0,0,0,0,0,0c1.4-1.1,2.8-2.3,4.1-3.6
			H521.4z"/>
	</defs>
	<clipPath id="SVGID_98_">
		<use xlink:href="#SVGID_97_"  overflow="visible"/>
	</clipPath>
	
		<linearGradient id="SVGID_99_" gradientUnits="userSpaceOnUse" x1="-455" y1="199.0135" x2="-454" y2="199.0135" gradientTransform="matrix(-149.5086 149.5086 149.5086 149.5086 -97142.0156 38038.1523)">
		<stop  offset="0" style="stop-color:#EF3D23"/>
		<stop  offset="1" style="stop-color:#F8D422"/>
	</linearGradient>
	<polygon clip-path="url(#SVGID_98_)" fill="url(#SVGID_99_)" points="564,-132 536.6,-104.5 509.1,-132 536.6,-159.4 	"/>
</g>
<g>
	<defs>
		<polygon id="SVGID_100_" points="542.7,-189.1 525.8,-149.6 560.7,-149.6 544.2,-188.9 543.4,-190.7 		"/>
	</defs>
	<clipPath id="SVGID_101_">
		<use xlink:href="#SVGID_100_"  overflow="visible"/>
	</clipPath>
	
		<linearGradient id="SVGID_102_" gradientUnits="userSpaceOnUse" x1="-455" y1="198.9706" x2="-454" y2="198.9706" gradientTransform="matrix(-149.5086 149.5086 149.5086 149.5086 -97151.3281 38028.8438)">
		<stop  offset="0" style="stop-color:#EF3D23"/>
		<stop  offset="1" style="stop-color:#F8D422"/>
	</linearGradient>
	<polygon clip-path="url(#SVGID_101_)" fill="url(#SVGID_102_)" points="581.3,-170.1 543.3,-132.1 505.3,-170.1 543.3,-208.2 	"/>
</g>
<g>
	<defs>
		<path id="SVGID_103_" d="M544.7-229.4c-3.3,0-6.6,0.2-9.8,0.6c-13.7,1.8-26.4,7.2-36.8,15.3c-1.4,1-2.7,2.2-4,3.3
			c-0.1,0.1-0.2,0.2-0.3,0.3c-3.1,2.8-6,5.8-8.5,9h0c-2.4,3.3-4.3,6.8-5.8,10.6c-2.1,5.4-3.2,11.2-3.2,17.3c0,6.3,1.2,12.2,3.4,17.7
			v0c0.3,0.9,0.7,1.7,1.1,2.6c4.9,10.5,13.5,18.8,24.2,23.5l8.8-20l16.9-38.6l4.3-9.8c-1.1-1.3-2.1-2.7-2.9-4.3
			c-0.3-0.6-0.5-1.2-0.8-1.8c-0.8-2-1.2-4.3-1.2-6.6c0-3.5,0.9-6.9,2.6-9.7c1.3-2.2,3-4.1,5-5.6c2-1.5,4.4-2.7,7-3.3
			c0.4-0.1,0.7-0.2,1.1-0.2c0.3-0.1,0.5-0.1,0.8-0.1c0,0,0.1,0,0.1,0c0.2,0,0.3,0,0.5,0c0.1,0,0.2,0,0.3,0c0.6-0.1,1.1-0.1,1.7-0.1
			c0.3,0,0.6,0,0.9,0c-0.5,0-0.9-0.1-1.4-0.1h0C547.4-229.4,546.1-229.4,544.7-229.4L544.7-229.4z"/>
	</defs>
	<clipPath id="SVGID_104_">
		<use xlink:href="#SVGID_103_"  overflow="visible"/>
	</clipPath>
	
		<linearGradient id="SVGID_105_" gradientUnits="userSpaceOnUse" x1="-455" y1="199.0139" x2="-454" y2="199.0139" gradientTransform="matrix(-149.5086 149.5086 149.5086 149.5086 -97177.4219 38002.7422)">
		<stop  offset="0" style="stop-color:#EF3D23"/>
		<stop  offset="1" style="stop-color:#F8D422"/>
	</linearGradient>
	<polygon clip-path="url(#SVGID_104_)" fill="url(#SVGID_105_)" points="600.3,-179.3 513.2,-92.2 426.1,-179.3 513.2,-266.4 	"/>
</g>
<g>
	<defs>
		<path id="SVGID_106_" d="M521.5-297.6c-3.2,3.4-5.1,8-5.1,13c0,10.4,8.3,18.8,18.5,19.1c0.1-0.6,0.1-1.2,0.1-1.8
			c0-7.2-3.9-13.4-9.7-16.6c0,0,0,0,0,0c-0.1-0.1-0.3-0.1-0.4-0.2c-2.9-1.6-4.8-4.7-4.8-8.3C520.1-294.4,520.6-296.1,521.5-297.6
			L521.5-297.6z"/>
	</defs>
	<clipPath id="SVGID_107_">
		<use xlink:href="#SVGID_106_"  overflow="visible"/>
	</clipPath>
	
		<linearGradient id="SVGID_108_" gradientUnits="userSpaceOnUse" x1="-455" y1="198.9916" x2="-454" y2="198.9916" gradientTransform="matrix(-149.5086 149.5086 149.5086 149.5086 -97216.9453 37959.2227)">
		<stop  offset="0" style="stop-color:#EF3D23"/>
		<stop  offset="1" style="stop-color:#F8D422"/>
	</linearGradient>
	<polygon clip-path="url(#SVGID_107_)" fill="url(#SVGID_108_)" points="551.1,-281.6 525.8,-256.2 500.4,-281.6 525.8,-306.9 	"/>
</g>
<g>
	<defs>
		<rect id="SVGID_109_" x="-455" y="-343.3" width="1200" height="542.3"/>
	</defs>
	<clipPath id="SVGID_110_">
		<use xlink:href="#SVGID_109_"  overflow="visible"/>
	</clipPath>
	<rect x="477.3" y="-66.3" clip-path="url(#SVGID_110_)" fill="#F8D422" width="36.5" height="36.5"/>
</g>
<g>
	<defs>
		<rect id="SVGID_111_" x="430.5" y="-66.3" width="36.5" height="36.5"/>
	</defs>
	<clipPath id="SVGID_112_">
		<use xlink:href="#SVGID_111_"  overflow="visible"/>
	</clipPath>
	
		<linearGradient id="SVGID_113_" gradientUnits="userSpaceOnUse" x1="-455" y1="199" x2="-454" y2="199" gradientTransform="matrix(-36.5032 0 0 36.5032 -16141.9248 -7312.2114)">
		<stop  offset="0" style="stop-color:#EF3D23"/>
		<stop  offset="1" style="stop-color:#F8D422"/>
	</linearGradient>
	<rect x="430.5" y="-66.3" clip-path="url(#SVGID_112_)" fill="url(#SVGID_113_)" width="36.5" height="36.5"/>
</g>
<g>
	<defs>
		<rect id="SVGID_114_" x="-455" y="-343.3" width="1200" height="542.3"/>
	</defs>
	<clipPath id="SVGID_115_">
		<use xlink:href="#SVGID_114_"  overflow="visible"/>
	</clipPath>
	<rect x="524" y="-66.3" clip-path="url(#SVGID_115_)" fill="#EF3D23" width="36.5" height="36.5"/>
	<rect x="570.7" y="-66.3" clip-path="url(#SVGID_115_)" width="36.5" height="36.5"/>
</g>
<g>
	<defs>
		<path id="SVGID_116_" d="M386.8,25c0,3.3,1.5,6.1,3.8,8.1c0.2,0.1,0.3,0.3,0.5,0.4c1,0.8,2.2,1.3,3.5,1.6c0,0,0,0,0.1,0
			c1.3-0.9,2.6-1.7,4-2.4c0.3-0.2,0.7-0.3,1-0.5c1.5-0.6,3-1.1,4.6-1.5c0.6-0.1,1.3-0.3,1.9-0.4c1.2-0.2,2.5-0.3,3.8-0.3
			c2,0,4.1,0.1,5.9,0.5c-0.9-0.9-1.9-1.7-2.9-2.4h0l0,0c-1.6-1-3.4-1.8-5.3-2.1c-1-0.2-1.9-0.3-3-0.3h-0.1c-1.3,0-2.7,0.2-3.9,0.5
			c-0.1,0-0.2,0-0.2,0.1c-0.3,0.1-0.5,0.2-0.8,0.2c-0.9,0.3-1.7,0.6-2.5,1.1c-0.9,0.2-1.9,0.4-2.8,0.4c-3,0-5.6-1.2-7.6-3.2V25z"/>
	</defs>
	<clipPath id="SVGID_117_">
		<use xlink:href="#SVGID_116_"  overflow="visible"/>
	</clipPath>
	
		<linearGradient id="SVGID_118_" gradientUnits="userSpaceOnUse" x1="-455" y1="199" x2="-454" y2="199" gradientTransform="matrix(0 92.1358 92.1358 0 -17933.6973 41928.4727)">
		<stop  offset="0" style="stop-color:#EF3D23"/>
		<stop  offset="1" style="stop-color:#F8D422"/>
	</linearGradient>
	<rect x="386.8" y="24.8" clip-path="url(#SVGID_117_)" fill="url(#SVGID_118_)" width="29.1" height="10.4"/>
</g>
<g>
	<defs>
		<path id="SVGID_119_" d="M406.1,34.5c-0.6,0.1-1.3,0.2-1.9,0.3c-1.6,0.4-3.2,0.9-4.6,1.5c-0.3,0.2-0.7,0.3-1,0.5
			c-1.4,0.7-2.7,1.5-4,2.4c-0.5,0.4-1,0.8-1.5,1.2c-1.5,1.3-2.9,2.8-4.1,4.4c-3.2,4.3-5,9.6-5,15.4c0,0.1,0,0.3,0,0.4v0
			c1.9-3,4.2-5.7,6.8-8c0.9-0.8,1.7-1.5,2.7-2.3c3.4-2.7,7.3-4.8,11.4-6.3c2.3-0.8,4.6-1.5,7.1-1.9c2.1-0.4,4.2-0.6,6.3-0.6
			c0.3,0,0.6,0,0.9,0c0.2,0,0.5,0,0.7,0c1.2,0,2.4,0.1,3.6,0.2c2.1,0.2,4.1,0.6,6.1,1.1c-2.3-2.5-5-4.6-8.1-6.1
			c-0.3-0.2-0.7-0.3-1-0.5c-1.3-0.6-2.7-1.1-4.2-1.4c-0.2,0-0.3-0.1-0.5-0.1h0c-1.8-0.4-3.7-0.6-5.7-0.6
			C408.7,34.2,407.4,34.3,406.1,34.5"/>
	</defs>
	<clipPath id="SVGID_120_">
		<use xlink:href="#SVGID_119_"  overflow="visible"/>
	</clipPath>
	
		<linearGradient id="SVGID_121_" gradientUnits="userSpaceOnUse" x1="-455" y1="199" x2="-454" y2="199" gradientTransform="matrix(0 92.1358 92.1358 0 -17928.3945 41930.4727)">
		<stop  offset="0" style="stop-color:#EF3D23"/>
		<stop  offset="1" style="stop-color:#F8D422"/>
	</linearGradient>
	<rect x="383.9" y="34.2" clip-path="url(#SVGID_120_)" fill="url(#SVGID_121_)" width="45.5" height="26.5"/>
</g>
<g>
	<defs>
		<path id="SVGID_122_" d="M407.4,96.2l-3,7c1.4,0.2,2.9,0.4,4.4,0.4c6,0,11.5-2,15.9-5.4c0,0,0,0,0,0c0.8-0.6,1.5-1.3,2.2-1.9
			H407.4z"/>
	</defs>
	<clipPath id="SVGID_123_">
		<use xlink:href="#SVGID_122_"  overflow="visible"/>
	</clipPath>
	
		<linearGradient id="SVGID_124_" gradientUnits="userSpaceOnUse" x1="-455" y1="199" x2="-454" y2="199" gradientTransform="matrix(0 92.1358 92.1358 0 -17919.291 41932.4727)">
		<stop  offset="0" style="stop-color:#EF3D23"/>
		<stop  offset="1" style="stop-color:#F8D422"/>
	</linearGradient>
	<rect x="404.4" y="96.2" clip-path="url(#SVGID_123_)" fill="url(#SVGID_124_)" width="22.6" height="7.4"/>
</g>
<g>
	<defs>
		<polygon id="SVGID_125_" points="419.1,68.7 409.9,90.3 428.9,90.3 419.9,68.8 419.5,67.8 		"/>
	</defs>
	<clipPath id="SVGID_126_">
		<use xlink:href="#SVGID_125_"  overflow="visible"/>
	</clipPath>
	
		<linearGradient id="SVGID_127_" gradientUnits="userSpaceOnUse" x1="-455" y1="199" x2="-454" y2="199" gradientTransform="matrix(0 92.1358 92.1358 0 -17915.6191 41932.4727)">
		<stop  offset="0" style="stop-color:#EF3D23"/>
		<stop  offset="1" style="stop-color:#F8D422"/>
	</linearGradient>
	<rect x="409.9" y="67.8" clip-path="url(#SVGID_126_)" fill="url(#SVGID_127_)" width="19.1" height="22.5"/>
</g>
<g>
	<defs>
		<path id="SVGID_128_" d="M420.2,46.7c-1.8,0-3.6,0.1-5.3,0.3c-7.5,1-14.4,3.9-20.1,8.3c-0.8,0.6-1.5,1.2-2.2,1.8
			c-0.1,0-0.1,0.1-0.2,0.2c-1.7,1.5-3.3,3.2-4.7,4.9h0c-1.3,1.8-2.4,3.7-3.2,5.8c-1.1,2.9-1.8,6.1-1.8,9.5c0,3.4,0.7,6.7,1.9,9.7v0
			c0.2,0.5,0.4,0.9,0.6,1.4c2.7,5.7,7.4,10.3,13.2,12.8l4.8-10.9l9.3-21.1l2.4-5.4c-0.6-0.7-1.1-1.5-1.6-2.3c-0.2-0.3-0.3-0.7-0.4-1
			c-0.4-1.1-0.6-2.3-0.6-3.6c0-1.9,0.5-3.8,1.4-5.3c0.7-1.2,1.6-2.2,2.8-3.1c1.1-0.8,2.4-1.5,3.8-1.8c0.2-0.1,0.4-0.1,0.6-0.1
			c0.2,0,0.3,0,0.5-0.1c0,0,0,0,0.1,0c0.1,0,0.2,0,0.3,0c0,0,0.1,0,0.1,0c0.3,0,0.6,0,0.9,0c0.2,0,0.3,0,0.5,0c-0.2,0-0.5,0-0.7,0h0
			C421.7,46.7,420.9,46.7,420.2,46.7L420.2,46.7z"/>
	</defs>
	<clipPath id="SVGID_129_">
		<use xlink:href="#SVGID_128_"  overflow="visible"/>
	</clipPath>
	
		<linearGradient id="SVGID_130_" gradientUnits="userSpaceOnUse" x1="-455" y1="199" x2="-454" y2="199" gradientTransform="matrix(0 92.1358 92.1358 0 -17932.0801 41932.4727)">
		<stop  offset="0" style="stop-color:#EF3D23"/>
		<stop  offset="1" style="stop-color:#F8D422"/>
	</linearGradient>
	<rect x="382.7" y="46.7" clip-path="url(#SVGID_129_)" fill="url(#SVGID_130_)" width="40.4" height="54.8"/>
</g>
<g>
	<defs>
		<path id="SVGID_131_" d="M407.5,7.6c-1.7,1.9-2.8,4.4-2.8,7.1c0,5.7,4.5,10.3,10.1,10.4c0-0.3,0-0.6,0-1c0-3.9-2.1-7.3-5.3-9.1
			c0,0,0,0,0,0c-0.1,0-0.2-0.1-0.2-0.1c-1.6-0.9-2.6-2.6-2.6-4.5C406.7,9.3,407,8.4,407.5,7.6L407.5,7.6z"/>
	</defs>
	<clipPath id="SVGID_132_">
		<use xlink:href="#SVGID_131_"  overflow="visible"/>
	</clipPath>
	
		<linearGradient id="SVGID_133_" gradientUnits="userSpaceOnUse" x1="-455" y1="199" x2="-454" y2="199" gradientTransform="matrix(0 92.1358 92.1358 0 -17925.1914 41928.4727)">
		<stop  offset="0" style="stop-color:#EF3D23"/>
		<stop  offset="1" style="stop-color:#F8D422"/>
	</linearGradient>
	<rect x="404.7" y="7.6" clip-path="url(#SVGID_132_)" fill="url(#SVGID_133_)" width="10.2" height="17.5"/>
</g>
<g>
	<defs>
		<rect id="SVGID_134_" x="-455" y="-343.3" width="1200" height="542.3"/>
	</defs>
	<clipPath id="SVGID_135_">
		<use xlink:href="#SVGID_134_"  overflow="visible"/>
	</clipPath>
	<path clip-path="url(#SVGID_135_)" d="M439,63.3h3.9v19.8c0.7-0.9,2.7-3.2,6.5-3.2c2.7,0,5.1,1.1,6.5,3.1c1.1,1.7,1.3,3.6,1.3,6.1
		v14h-3.9V89.2c0-1.4-0.1-3-1-4.2c-0.8-1-2-1.6-3.7-1.6c-1.4,0-2.8,0.4-4,1.7c-1.5,1.8-1.6,4.5-1.6,6.1v11.9H439V63.3z"/>
	<path clip-path="url(#SVGID_135_)" d="M464.7,80.5h3.9v2.5c0.4-0.6,2.1-3,5.1-3c1.2,0,2.5,0.4,3.5,0.9l-1.9,3.6
		c-0.9-0.6-1.7-0.8-2.3-0.8c-1.6,0-2.6,0.7-3.2,1.4c-0.7,0.9-1.3,2.4-1.3,6.1v12h-3.9V80.5z"/>
	<path clip-path="url(#SVGID_135_)" d="M482.9,69.1c1.5,0,2.8,1.3,2.8,2.8c0,1.5-1.3,2.8-2.8,2.8c-1.5,0-2.8-1.3-2.8-2.8
		C480.1,70.4,481.3,69.1,482.9,69.1 M484.8,103.2h-3.9V80.5h3.9V103.2z"/>
	<path clip-path="url(#SVGID_135_)" d="M506,66.7h7.4c3.7,0,8.9,0.4,13.4,4.3c3.3,2.8,6.2,7.4,6.2,14c0,7.7-3.8,11.8-6.4,14
		c-3.3,2.8-6.8,4.2-13.3,4.2H506V66.7z M510,99.3h3.6c2.9,0,6.9-0.3,10.4-3.3c2.7-2.3,4.9-5.9,4.9-11.1c0-8.7-6.1-14.4-15.4-14.4
		H510V99.3z"/>
	<path clip-path="url(#SVGID_135_)" d="M556.9,80.5h3.9v22.7h-3.9V100c-1.3,1.7-3.8,3.8-7.8,3.8c-5.7,0-11-4-11-12
		c0-7.8,5.2-11.9,11-11.9c4.4,0,6.7,2.4,7.8,3.8V80.5z M542.2,91.8c0,4.9,2.7,8.5,7.4,8.5c4.8,0,7.5-4,7.5-8.5c0-5.8-4-8.4-7.5-8.4
		C545.7,83.4,542.2,86.3,542.2,91.8"/>
	<path clip-path="url(#SVGID_135_)" d="M568.3,80.5h3.9v2.6c0.7-0.9,2.7-3.2,6.5-3.2c2.7,0,5.1,1.1,6.5,3.1c1.1,1.7,1.3,3.6,1.3,6.1
		v14h-3.9V89.2c0-1.4-0.1-3-1-4.2c-0.8-1-2-1.6-3.7-1.6c-1.4,0-2.8,0.4-4,1.7c-1.5,1.8-1.6,4.5-1.6,6.1v11.9h-3.9V80.5z"/>
	<path clip-path="url(#SVGID_135_)" d="M595.9,69.1c1.5,0,2.8,1.3,2.8,2.8c0,1.5-1.3,2.8-2.8,2.8c-1.5,0-2.8-1.3-2.8-2.8
		C593.2,70.4,594.4,69.1,595.9,69.1 M597.9,103.2H594V80.5h3.9V103.2z"/>
	<path clip-path="url(#SVGID_135_)" d="M625.5,97.4c-0.7,1.3-1.6,2.6-2.8,3.7c-2.1,1.9-4.6,2.8-7.5,2.8c-5.5,0-11.2-3.4-11.2-11.9
		c0-6.8,4.2-12,11-12c4.4,0,7.2,2.2,8.6,4.2c1.4,2,2.2,5.5,2.1,8.5H608c0.1,4.7,3.3,7.7,7.2,7.7c1.9,0,3.3-0.5,4.6-1.6
		c1-0.9,1.9-2,2.4-3.1L625.5,97.4z M621.6,89.3c-0.7-3.6-3.3-5.9-6.7-5.9s-6.1,2.5-6.7,5.9H621.6z"/>
	<rect x="631.6" y="63.3" clip-path="url(#SVGID_135_)" width="3.9" height="39.8"/>
	<path clip-path="url(#SVGID_135_)" d="M652.4,85.7c-0.5-1.3-1.7-2.3-3.2-2.3c-1.4,0-2.7,0.8-2.7,2.6c0,1.6,1.1,2.1,3.7,3.2
		c3.3,1.4,4.8,2.4,5.7,3.5c1,1.2,1.2,2.4,1.2,3.7c0,4.8-3.4,7.4-7.8,7.4c-0.9,0-6-0.1-7.9-5.8l3.4-1.4c0.4,1.2,1.7,3.7,4.6,3.7
		c2.6,0,3.7-1.9,3.7-3.6c0-2.1-1.5-2.8-3.7-3.8c-2.7-1.2-4.5-2.1-5.5-3.3c-0.9-1.1-1-2.2-1-3.3c0-4,2.8-6.3,6.6-6.3
		c1.2,0,4.4,0.2,6.2,4.1L652.4,85.7z"/>
</g>
<text transform="matrix(1 0 0 1 -242.0684 172.2695)"><tspan x="0" y="0" font-family="'FuturaPT-Book'" font-size="36" letter-spacing="-1">1</tspan><tspan x="16.7" y="0" font-family="'FuturaPT-Book'" font-size="36">.</tspan></text>
<text transform="matrix(1 0 0 1 142.4834 172.2695)" font-family="'FuturaPT-Book'" font-size="36">2.</text>
<text transform="matrix(1 0 0 1 527.9355 172.2695)" font-family="'FuturaPT-Book'" font-size="36">3.</text>
</svg>
