<?xml version="1.0" encoding="utf-8"?>
<!-- Generator: Adobe Illustrator 24.0.1, SVG Export Plug-In . SVG Version: 6.00 Build 0)  -->
<svg version="1.1" id="Layer_1" xmlns="http://www.w3.org/2000/svg" xmlns:xlink="http://www.w3.org/1999/xlink" x="0px" y="0px"
	 viewBox="0 0 93 149" style="enable-background:new 0 0 93 149;" xml:space="preserve">
<style type="text/css">
	.st0{fill:#FFFFFF;}
	.st1{fill:none;stroke:#221D23;stroke-width:2;stroke-miterlimit:10;}
	.st2{fill:#221D23;}
</style>
<g>
	<path class="st0" d="M-103.8,109.9c-15.3,0-28.3-9.8-34-25.6c-1.1-3.1-1.6-5.7-1.6-8V31.7c0-4.1,1.9-8.9,5.6-14.3
		c7.3-10.7,18.4-16.9,30.4-16.9c13.3,0,25.2,7.6,31.9,20.4c2.1,4,3.1,7.6,3.1,10.8v44.7c0,2.2-0.5,4.7-1.5,7.7
		C-75.5,100-88.4,109.9-103.8,109.9z"/>
	<path d="M-103.5,0v1c13.1,0,24.9,7.5,31.4,20.1C-70,25-69,28.6-69,31.7v44.7c0,2.1-0.5,4.6-1.5,7.5c-5.4,15.8-18.2,25.6-33.4,25.6
		c-15.1,0-27.9-9.7-33.5-25.3c-1.1-3-1.6-5.6-1.6-7.8V31.7c0-4,1.9-8.7,5.5-14c7.2-10.6,18.1-16.6,30-16.6V0 M-103.5,0
		c-11.4,0-23,5.7-30.8,17.1c-3.4,5-5.7,10-5.7,14.6v44.7c0,2.4,0.6,5.2,1.7,8.2c6.2,17.3,20.4,26,34.5,26c14.2,0,28.3-8.8,34.3-26.3
		c1-2.8,1.5-5.5,1.5-7.8V31.7c0-3.5-1.2-7.2-3.2-11C-78.4,6.9-90.9,0-103.5,0L-103.5,0z"/>
</g>
<g>
	<path d="M-103.5,43.5c-2.2,0-5-0.7-5-6.5c0-4.7,1.9-7.5,5-7.5s5,2.8,5,7.5C-98.5,42.8-101.3,43.5-103.5,43.5z"/>
	<path class="st0" d="M-103.5,30c2.8,0,4.5,2.6,4.5,7c0,3-0.5,6-4.5,6s-4.5-3-4.5-6C-108,32.6-106.3,30-103.5,30 M-103.5,29
		c-3,0-5.5,2.5-5.5,8s2.5,7,5.5,7s5.5-1.5,5.5-7S-100.5,29-103.5,29L-103.5,29z"/>
</g>
<path class="st1" d="M46.5,107L46.5,107C30.8,107,18,94.2,18,78.5v-40C18,22.8,30.8,10,46.5,10l0,0C62.2,10,75,22.8,75,38.5v40
	C75,94.2,62.2,107,46.5,107z"/>
<path class="st2" d="M47,49L47,49c-1.7,0-3-1.3-3-3v-8c0-1.7,1.3-3,3-3l0,0c1.7,0,3,1.3,3,3v8C50,47.7,48.7,49,47,49z"/>
<rect x="45.4" y="118" class="st2" width="4.3" height="13.6"/>
<polygon class="st2" points="48,138 48,138 41.9,130.9 53.1,130.9 "/>
</svg>
