<?xml version="1.0" encoding="utf-8"?>
<!-- Generator: Adobe Illustrator 24.0.1, SVG Export Plug-In . SVG Version: 6.00 Build 0)  -->
<svg version="1.1" id="Layer_1" xmlns="http://www.w3.org/2000/svg" xmlns:xlink="http://www.w3.org/1999/xlink" x="0px" y="0px"
	 viewBox="0 0 93 149" style="enable-background:new 0 0 93 149;" xml:space="preserve">
<style type="text/css">
	.st0{fill:#FFFFFF;}
	.st1{fill:none;stroke:#A18BC1;stroke-width:2;stroke-miterlimit:10;}
	.st2{fill:#A18BC1;}
</style>
<g>
	<path class="st0" d="M-103.84,109.94c-15.29,0-28.32-9.82-34-25.62c-1.1-3.05-1.65-5.74-1.65-7.98V31.66
		c0-4.08,1.88-8.89,5.58-14.3c7.33-10.71,18.41-16.85,30.4-16.85c13.3,0,25.22,7.61,31.88,20.36c2.08,3.99,3.14,7.62,3.14,10.79
		v44.68c0,2.16-0.5,4.74-1.5,7.65C-75.46,100-88.43,109.94-103.84,109.94z"/>
	<path d="M-103.52,0v1c13.11,0,24.86,7.51,31.43,20.1c2.05,3.92,3.09,7.47,3.09,10.56v44.68c0,2.11-0.5,4.63-1.47,7.49
		c-5.39,15.8-18.18,25.61-33.37,25.61c-15.07,0-27.92-9.69-33.53-25.29c-1.08-3-1.62-5.63-1.62-7.81V31.66
		c0-3.97,1.85-8.69,5.5-14.02C-126.27,7.07-115.34,1-103.52,1L-103.52,0 M-103.52,0c-11.44,0-23,5.66-30.81,17.07
		c-3.41,4.98-5.67,10.01-5.67,14.59v44.68c0,2.41,0.61,5.17,1.68,8.15c6.22,17.3,20.37,25.95,34.47,25.95
		c14.19,0,28.33-8.76,34.32-26.29c0.97-2.85,1.53-5.49,1.53-7.81V31.66c0-3.49-1.22-7.23-3.2-11.02C-78.37,6.92-90.88,0-103.52,0
		L-103.52,0z"/>
</g>
<g>
	<path d="M-103.5,43.5c-2.15,0-5-0.67-5-6.5c0-4.7,1.87-7.5,5-7.5s5,2.8,5,7.5C-98.5,42.83-101.35,43.5-103.5,43.5z"/>
	<path class="st0" d="M-103.5,30c2.82,0,4.5,2.62,4.5,7c0,2.97-0.53,6-4.5,6s-4.5-3.03-4.5-6C-108,32.62-106.32,30-103.5,30
		 M-103.5,29c-3.04,0-5.5,2.48-5.5,8s2.46,7,5.5,7s5.5-1.48,5.5-7S-100.46,29-103.5,29L-103.5,29z"/>
</g>
<path class="st1" d="M46.5,107L46.5,107C30.82,107,18,94.18,18,78.5v-40C18,22.82,30.82,10,46.5,10h0C62.18,10,75,22.82,75,38.5v40
	C75,94.18,62.18,107,46.5,107z"/>
<path class="st2" d="M47,49L47,49c-1.65,0-3-1.35-3-3v-8c0-1.65,1.35-3,3-3h0c1.65,0,3,1.35,3,3v8C50,47.65,48.65,49,47,49z"/>
<rect x="45.36" y="118" class="st2" width="4.29" height="13.57"/>
<polygon class="st2" points="48.01,138 48.01,138 41.89,130.86 53.11,130.86 "/>
</svg>
